<mxfile host="Electron" modified="2023-08-30T01:34:37.301Z" agent="Mozilla/5.0 (Windows NT 10.0; Win64; x64) AppleWebKit/537.36 (KHTML, like Gecko) draw.io/21.6.5 Chrome/114.0.5735.243 Electron/25.3.1 Safari/537.36" etag="8Cm5o_kj4pYz_O5ZFsZd" version="21.6.5" type="device">
  <diagram name="Guión" id="edf60f1a-56cd-e834-aa8a-f176f3a09ee4">
    <mxGraphModel dx="1839" dy="625" grid="0" gridSize="10" guides="1" tooltips="1" connect="1" arrows="1" fold="1" page="0" pageScale="1" pageWidth="827" pageHeight="1169" background="#000000" math="0" shadow="1">
      <root>
        <mxCell id="0" />
        <mxCell id="1" parent="0" />
        <mxCell id="uqprIy-3fPHbmCHrBsN2-4" style="edgeStyle=orthogonalEdgeStyle;rounded=1;orthogonalLoop=1;jettySize=auto;html=1;entryX=0.5;entryY=0;entryDx=0;entryDy=0;exitX=0.5;exitY=1;exitDx=0;exitDy=0;" parent="1" source="ldbtIe3ePr57GWi5LKob-25" target="60e70716793133e9-5" edge="1">
          <mxGeometry relative="1" as="geometry">
            <mxPoint x="725" y="79" as="sourcePoint" />
            <mxPoint x="845" y="68" as="targetPoint" />
          </mxGeometry>
        </mxCell>
        <mxCell id="wI4Z6YU03VDBLguoiG8N-2" style="edgeStyle=orthogonalEdgeStyle;rounded=1;orthogonalLoop=1;jettySize=auto;html=1;entryX=0.5;entryY=0;entryDx=0;entryDy=0;" parent="1" target="wI4Z6YU03VDBLguoiG8N-1" edge="1">
          <mxGeometry relative="1" as="geometry">
            <mxPoint x="774.9122807017543" y="158.0526315789474" as="sourcePoint" />
          </mxGeometry>
        </mxCell>
        <mxCell id="uqprIy-3fPHbmCHrBsN2-2" style="edgeStyle=orthogonalEdgeStyle;rounded=1;orthogonalLoop=1;jettySize=auto;html=1;entryX=0.5;entryY=0;entryDx=0;entryDy=0;" parent="1" source="60e70716793133e9-5" target="60e70716793133e9-9" edge="1">
          <mxGeometry relative="1" as="geometry" />
        </mxCell>
        <mxCell id="uqprIy-3fPHbmCHrBsN2-3" style="edgeStyle=orthogonalEdgeStyle;rounded=1;orthogonalLoop=1;jettySize=auto;html=1;entryX=0.5;entryY=0;entryDx=0;entryDy=0;" parent="1" source="60e70716793133e9-5" target="60e70716793133e9-11" edge="1">
          <mxGeometry relative="1" as="geometry" />
        </mxCell>
        <mxCell id="60e70716793133e9-5" value="B INTRO 0&lt;br&gt;" style="rhombus;whiteSpace=wrap;html=1;rounded=1;shadow=1;labelBackgroundColor=none;strokeWidth=1;fontFamily=Verdana;fontSize=8;align=center;gradientDirection=north;fillColor=#4F3F00;" parent="1" vertex="1">
          <mxGeometry x="675" y="130" width="100" height="60" as="geometry" />
        </mxCell>
        <mxCell id="uqprIy-3fPHbmCHrBsN2-31" style="edgeStyle=orthogonalEdgeStyle;rounded=1;orthogonalLoop=1;jettySize=auto;html=1;entryX=0.5;entryY=0;entryDx=0;entryDy=0;" parent="1" source="60e70716793133e9-9" target="uqprIy-3fPHbmCHrBsN2-37" edge="1">
          <mxGeometry relative="1" as="geometry">
            <mxPoint x="546.0344827586207" y="321.0206896551724" as="targetPoint" />
          </mxGeometry>
        </mxCell>
        <mxCell id="60e70716793133e9-9" value="¿Hay algo que recuerdes?" style="whiteSpace=wrap;html=1;rounded=1;shadow=1;labelBackgroundColor=none;strokeWidth=1;fontFamily=Verdana;fontSize=8;align=center;" parent="1" vertex="1">
          <mxGeometry x="468" y="245" width="120" height="40" as="geometry" />
        </mxCell>
        <mxCell id="uqprIy-3fPHbmCHrBsN2-27" style="edgeStyle=orthogonalEdgeStyle;rounded=1;orthogonalLoop=1;jettySize=auto;html=1;entryX=0.5;entryY=0;entryDx=0;entryDy=0;" parent="1" source="60e70716793133e9-11" target="uqprIy-3fPHbmCHrBsN2-42" edge="1">
          <mxGeometry relative="1" as="geometry">
            <mxPoint x="742" y="324.0000000000001" as="targetPoint" />
          </mxGeometry>
        </mxCell>
        <mxCell id="60e70716793133e9-11" value="¿Qué objetos tienes?" style="whiteSpace=wrap;html=1;rounded=1;shadow=1;labelBackgroundColor=none;strokeWidth=1;fontFamily=Verdana;fontSize=8;align=center;spacing=6;fillColor=#a0522d;fontColor=#ffffff;strokeColor=#F0F0F0;" parent="1" vertex="1">
          <mxGeometry x="665" y="245" width="120" height="40" as="geometry" />
        </mxCell>
        <mxCell id="60e70716793133e9-30" value="Muerte" style="strokeWidth=1;html=1;shape=mxgraph.flowchart.terminator;whiteSpace=wrap;rounded=1;shadow=1;labelBackgroundColor=none;fontFamily=Verdana;fontSize=8;align=center;fillColor=#2A0303;" parent="1" vertex="1">
          <mxGeometry x="801.5" y="953" width="60" height="30" as="geometry" />
        </mxCell>
        <mxCell id="uqprIy-3fPHbmCHrBsN2-40" style="edgeStyle=orthogonalEdgeStyle;rounded=1;orthogonalLoop=1;jettySize=auto;html=1;entryX=0.5;entryY=0;entryDx=0;entryDy=0;" parent="1" source="wI4Z6YU03VDBLguoiG8N-1" target="uqprIy-3fPHbmCHrBsN2-39" edge="1">
          <mxGeometry relative="1" as="geometry" />
        </mxCell>
        <mxCell id="wI4Z6YU03VDBLguoiG8N-1" value="¿Qué ves a tu alrededor?" style="whiteSpace=wrap;html=1;rounded=1;shadow=1;labelBackgroundColor=none;strokeWidth=1;fontFamily=Verdana;fontSize=8;align=center;spacing=6;" parent="1" vertex="1">
          <mxGeometry x="869" y="245" width="120" height="40" as="geometry" />
        </mxCell>
        <mxCell id="uqprIy-3fPHbmCHrBsN2-8" style="edgeStyle=orthogonalEdgeStyle;rounded=1;orthogonalLoop=1;jettySize=auto;html=1;entryX=0.5;entryY=0;entryDx=0;entryDy=0;exitX=0.5;exitY=1;exitDx=0;exitDy=0;" parent="1" source="uqprIy-3fPHbmCHrBsN2-5" target="uqprIy-3fPHbmCHrBsN2-7" edge="1">
          <mxGeometry relative="1" as="geometry">
            <mxPoint x="729" y="688" as="sourcePoint" />
          </mxGeometry>
        </mxCell>
        <mxCell id="uqprIy-3fPHbmCHrBsN2-10" style="edgeStyle=orthogonalEdgeStyle;rounded=1;orthogonalLoop=1;jettySize=auto;html=1;entryX=0.5;entryY=0;entryDx=0;entryDy=0;" parent="1" source="uqprIy-3fPHbmCHrBsN2-5" target="uqprIy-3fPHbmCHrBsN2-9" edge="1">
          <mxGeometry relative="1" as="geometry" />
        </mxCell>
        <mxCell id="uqprIy-3fPHbmCHrBsN2-12" style="edgeStyle=orthogonalEdgeStyle;rounded=1;orthogonalLoop=1;jettySize=auto;html=1;entryX=0.5;entryY=0;entryDx=0;entryDy=0;" parent="1" source="uqprIy-3fPHbmCHrBsN2-5" target="uqprIy-3fPHbmCHrBsN2-11" edge="1">
          <mxGeometry relative="1" as="geometry" />
        </mxCell>
        <mxCell id="uqprIy-3fPHbmCHrBsN2-22" style="edgeStyle=orthogonalEdgeStyle;rounded=1;orthogonalLoop=1;jettySize=auto;html=1;exitX=0.5;exitY=1;exitDx=0;exitDy=0;" parent="1" source="uqprIy-3fPHbmCHrBsN2-5" target="uqprIy-3fPHbmCHrBsN2-21" edge="1">
          <mxGeometry relative="1" as="geometry">
            <mxPoint x="729" y="688" as="sourcePoint" />
          </mxGeometry>
        </mxCell>
        <mxCell id="uqprIy-3fPHbmCHrBsN2-5" value="B INTRO 1" style="rhombus;whiteSpace=wrap;html=1;rounded=1;shadow=1;labelBackgroundColor=none;strokeWidth=1;fontFamily=Verdana;fontSize=8;align=center;gradientDirection=north;fillColor=#4F3F00;" parent="1" vertex="1">
          <mxGeometry x="675" y="616" width="100" height="60" as="geometry" />
        </mxCell>
        <mxCell id="ldbtIe3ePr57GWi5LKob-27" style="edgeStyle=orthogonalEdgeStyle;rounded=1;orthogonalLoop=1;jettySize=auto;html=1;" parent="1" source="uqprIy-3fPHbmCHrBsN2-7" target="ldbtIe3ePr57GWi5LKob-26" edge="1">
          <mxGeometry relative="1" as="geometry" />
        </mxCell>
        <mxCell id="uqprIy-3fPHbmCHrBsN2-7" value="Intenta abrir la puerta" style="whiteSpace=wrap;html=1;rounded=1;shadow=1;labelBackgroundColor=none;strokeWidth=1;fontFamily=Verdana;fontSize=8;align=center;spacing=6;" parent="1" vertex="1">
          <mxGeometry x="772" y="758" width="120" height="40" as="geometry" />
        </mxCell>
        <mxCell id="ldbtIe3ePr57GWi5LKob-4" style="edgeStyle=orthogonalEdgeStyle;rounded=1;orthogonalLoop=1;jettySize=auto;html=1;" parent="1" source="uqprIy-3fPHbmCHrBsN2-9" target="ldbtIe3ePr57GWi5LKob-2" edge="1">
          <mxGeometry relative="1" as="geometry" />
        </mxCell>
        <mxCell id="uqprIy-3fPHbmCHrBsN2-9" value="Mira por la ventana" style="whiteSpace=wrap;html=1;rounded=1;shadow=1;labelBackgroundColor=none;strokeWidth=1;fontFamily=Verdana;fontSize=8;align=center;spacing=6;" parent="1" vertex="1">
          <mxGeometry x="354" y="758" width="120" height="40" as="geometry" />
        </mxCell>
        <mxCell id="bXdIr6pcIIm7j5BVq9ug-5" style="edgeStyle=orthogonalEdgeStyle;rounded=1;orthogonalLoop=1;jettySize=auto;html=1;entryX=0.5;entryY=0;entryDx=0;entryDy=0;" parent="1" source="uqprIy-3fPHbmCHrBsN2-11" target="V76eQI3fGGlbh4bUr6bM-1" edge="1">
          <mxGeometry relative="1" as="geometry">
            <mxPoint x="1095" y="978" as="targetPoint" />
          </mxGeometry>
        </mxCell>
        <mxCell id="uqprIy-3fPHbmCHrBsN2-11" value="Sube la escalera" style="whiteSpace=wrap;html=1;rounded=1;shadow=1;labelBackgroundColor=none;strokeWidth=1;fontFamily=Verdana;fontSize=8;align=center;spacing=6;" parent="1" vertex="1">
          <mxGeometry x="959" y="758" width="120" height="40" as="geometry" />
        </mxCell>
        <mxCell id="uqprIy-3fPHbmCHrBsN2-18" style="edgeStyle=orthogonalEdgeStyle;rounded=1;orthogonalLoop=1;jettySize=auto;html=1;entryX=0.5;entryY=0;entryDx=0;entryDy=0;" parent="1" source="uqprIy-3fPHbmCHrBsN2-13" target="uqprIy-3fPHbmCHrBsN2-17" edge="1">
          <mxGeometry relative="1" as="geometry" />
        </mxCell>
        <mxCell id="uqprIy-3fPHbmCHrBsN2-20" style="edgeStyle=orthogonalEdgeStyle;rounded=1;orthogonalLoop=1;jettySize=auto;html=1;" parent="1" source="uqprIy-3fPHbmCHrBsN2-13" target="ldbtIe3ePr57GWi5LKob-63" edge="1">
          <mxGeometry relative="1" as="geometry">
            <mxPoint x="1213.5" y="1543.5" as="targetPoint" />
          </mxGeometry>
        </mxCell>
        <mxCell id="KzRNm1VHRkXIbj-EOXEV-66" style="edgeStyle=orthogonalEdgeStyle;rounded=1;orthogonalLoop=1;jettySize=auto;html=1;" parent="1" source="uqprIy-3fPHbmCHrBsN2-13" target="uqprIy-3fPHbmCHrBsN2-16" edge="1">
          <mxGeometry relative="1" as="geometry" />
        </mxCell>
        <mxCell id="uqprIy-3fPHbmCHrBsN2-13" value="B USU 0" style="rhombus;whiteSpace=wrap;html=1;rounded=1;shadow=1;labelBackgroundColor=none;strokeWidth=1;fontFamily=Verdana;fontSize=8;align=center;gradientDirection=north;fillColor=#4F3F00;" parent="1" vertex="1">
          <mxGeometry x="969" y="1425" width="100" height="60" as="geometry" />
        </mxCell>
        <mxCell id="RD_AgM2ZFSz2vdP_wPXj-14" style="edgeStyle=orthogonalEdgeStyle;rounded=1;orthogonalLoop=1;jettySize=auto;html=1;entryX=0.5;entryY=0;entryDx=0;entryDy=0;exitX=0.5;exitY=1;exitDx=0;exitDy=0;" parent="1" source="uqprIy-3fPHbmCHrBsN2-16" target="ldbtIe3ePr57GWi5LKob-32" edge="1">
          <mxGeometry relative="1" as="geometry" />
        </mxCell>
        <mxCell id="uqprIy-3fPHbmCHrBsN2-16" value="Alejate despacio" style="whiteSpace=wrap;html=1;rounded=1;shadow=1;labelBackgroundColor=none;strokeWidth=1;fontFamily=Verdana;fontSize=8;align=center;spacing=6;" parent="1" vertex="1">
          <mxGeometry x="959" y="1539" width="120" height="40" as="geometry" />
        </mxCell>
        <mxCell id="ldbtIe3ePr57GWi5LKob-30" style="edgeStyle=orthogonalEdgeStyle;rounded=1;orthogonalLoop=1;jettySize=auto;html=1;" parent="1" source="uqprIy-3fPHbmCHrBsN2-17" target="ldbtIe3ePr57GWi5LKob-29" edge="1">
          <mxGeometry relative="1" as="geometry" />
        </mxCell>
        <mxCell id="uqprIy-3fPHbmCHrBsN2-17" value="¡Corre!" style="whiteSpace=wrap;html=1;rounded=1;shadow=1;labelBackgroundColor=none;strokeWidth=1;fontFamily=Verdana;fontSize=8;align=center;spacing=6;" parent="1" vertex="1">
          <mxGeometry x="764.5" y="1539" width="120" height="40" as="geometry" />
        </mxCell>
        <mxCell id="KzRNm1VHRkXIbj-EOXEV-55" style="edgeStyle=orthogonalEdgeStyle;rounded=1;orthogonalLoop=1;jettySize=auto;html=1;entryX=1;entryY=0.5;entryDx=0;entryDy=0;exitX=0.5;exitY=1;exitDx=0;exitDy=0;" parent="1" source="ldbtIe3ePr57GWi5LKob-1" target="oMqR89CrZ4jayvg0T-Ow-2" edge="1">
          <mxGeometry relative="1" as="geometry">
            <mxPoint x="640" y="891" as="sourcePoint" />
          </mxGeometry>
        </mxCell>
        <mxCell id="ldbtIe3ePr57GWi5LKob-5" style="edgeStyle=orthogonalEdgeStyle;rounded=1;orthogonalLoop=1;jettySize=auto;html=1;" parent="1" source="uqprIy-3fPHbmCHrBsN2-21" target="ldbtIe3ePr57GWi5LKob-1" edge="1">
          <mxGeometry relative="1" as="geometry" />
        </mxCell>
        <mxCell id="uqprIy-3fPHbmCHrBsN2-21" value="Busca a alguien" style="whiteSpace=wrap;html=1;rounded=1;shadow=1;labelBackgroundColor=none;strokeWidth=1;fontFamily=Verdana;fontSize=8;align=center;spacing=6;" parent="1" vertex="1">
          <mxGeometry x="569" y="758" width="120" height="40" as="geometry" />
        </mxCell>
        <mxCell id="uqprIy-3fPHbmCHrBsN2-28" style="edgeStyle=orthogonalEdgeStyle;rounded=1;orthogonalLoop=1;jettySize=auto;html=1;exitX=0.5;exitY=1;exitDx=0;exitDy=0;" parent="1" source="uqprIy-3fPHbmCHrBsN2-42" target="erNQYKor5SNn1zJZx747-65" edge="1">
          <mxGeometry relative="1" as="geometry">
            <mxPoint x="749" y="373" as="sourcePoint" />
          </mxGeometry>
        </mxCell>
        <mxCell id="uqprIy-3fPHbmCHrBsN2-38" style="edgeStyle=orthogonalEdgeStyle;rounded=1;orthogonalLoop=1;jettySize=auto;html=1;exitX=0.5;exitY=1;exitDx=0;exitDy=0;" parent="1" source="uqprIy-3fPHbmCHrBsN2-37" target="erNQYKor5SNn1zJZx747-65" edge="1">
          <mxGeometry relative="1" as="geometry" />
        </mxCell>
        <mxCell id="uqprIy-3fPHbmCHrBsN2-37" value="INTRO 1" style="whiteSpace=wrap;html=1;rounded=1;shadow=1;labelBackgroundColor=none;strokeWidth=1;fontFamily=Verdana;fontSize=8;align=center;" parent="1" vertex="1">
          <mxGeometry x="468" y="335" width="120" height="40" as="geometry" />
        </mxCell>
        <mxCell id="uqprIy-3fPHbmCHrBsN2-41" style="edgeStyle=orthogonalEdgeStyle;rounded=1;orthogonalLoop=1;jettySize=auto;html=1;exitX=0.5;exitY=1;exitDx=0;exitDy=0;" parent="1" source="uqprIy-3fPHbmCHrBsN2-39" target="erNQYKor5SNn1zJZx747-65" edge="1">
          <mxGeometry relative="1" as="geometry" />
        </mxCell>
        <mxCell id="uqprIy-3fPHbmCHrBsN2-39" value="INTRO 3" style="whiteSpace=wrap;html=1;rounded=1;shadow=1;labelBackgroundColor=none;strokeWidth=1;fontFamily=Verdana;fontSize=8;align=center;spacing=6;" parent="1" vertex="1">
          <mxGeometry x="869" y="335" width="120" height="40" as="geometry" />
        </mxCell>
        <mxCell id="uqprIy-3fPHbmCHrBsN2-42" value="INTRO 2" style="whiteSpace=wrap;html=1;rounded=1;shadow=1;labelBackgroundColor=none;strokeWidth=1;fontFamily=Verdana;fontSize=8;align=center;spacing=6;" parent="1" vertex="1">
          <mxGeometry x="665" y="335" width="120" height="40" as="geometry" />
        </mxCell>
        <mxCell id="KzRNm1VHRkXIbj-EOXEV-10" style="edgeStyle=orthogonalEdgeStyle;rounded=1;orthogonalLoop=1;jettySize=auto;html=1;entryX=0.5;entryY=0;entryDx=0;entryDy=0;" parent="1" source="uqprIy-3fPHbmCHrBsN2-43" target="KzRNm1VHRkXIbj-EOXEV-9" edge="1">
          <mxGeometry relative="1" as="geometry" />
        </mxCell>
        <mxCell id="KzRNm1VHRkXIbj-EOXEV-13" style="edgeStyle=orthogonalEdgeStyle;rounded=1;orthogonalLoop=1;jettySize=auto;html=1;entryX=0.5;entryY=0;entryDx=0;entryDy=0;" parent="1" source="uqprIy-3fPHbmCHrBsN2-43" target="KzRNm1VHRkXIbj-EOXEV-12" edge="1">
          <mxGeometry relative="1" as="geometry" />
        </mxCell>
        <mxCell id="uqprIy-3fPHbmCHrBsN2-43" value="B OPE 0" style="rhombus;whiteSpace=wrap;html=1;rounded=1;shadow=1;labelBackgroundColor=none;strokeWidth=1;fontFamily=Verdana;fontSize=8;align=center;gradientDirection=north;fillColor=#4F3F00;" parent="1" vertex="1">
          <mxGeometry x="364" y="1056" width="100" height="60" as="geometry" />
        </mxCell>
        <mxCell id="KzRNm1VHRkXIbj-EOXEV-2" style="edgeStyle=orthogonalEdgeStyle;rounded=1;orthogonalLoop=1;jettySize=auto;html=1;entryX=0.5;entryY=0;entryDx=0;entryDy=0;" parent="1" source="uqprIy-3fPHbmCHrBsN2-49" target="KzRNm1VHRkXIbj-EOXEV-1" edge="1">
          <mxGeometry relative="1" as="geometry" />
        </mxCell>
        <mxCell id="KzRNm1VHRkXIbj-EOXEV-4" style="edgeStyle=orthogonalEdgeStyle;rounded=1;orthogonalLoop=1;jettySize=auto;html=1;entryX=0.5;entryY=0;entryDx=0;entryDy=0;" parent="1" source="uqprIy-3fPHbmCHrBsN2-49" target="KzRNm1VHRkXIbj-EOXEV-3" edge="1">
          <mxGeometry relative="1" as="geometry" />
        </mxCell>
        <mxCell id="RD_AgM2ZFSz2vdP_wPXj-13" style="edgeStyle=orthogonalEdgeStyle;rounded=1;orthogonalLoop=1;jettySize=auto;html=1;" parent="1" source="uqprIy-3fPHbmCHrBsN2-49" target="RD_AgM2ZFSz2vdP_wPXj-12" edge="1">
          <mxGeometry relative="1" as="geometry" />
        </mxCell>
        <mxCell id="z3bMcTmMKauird0PgGkB-2" style="edgeStyle=orthogonalEdgeStyle;rounded=1;orthogonalLoop=1;jettySize=auto;html=1;" parent="1" source="uqprIy-3fPHbmCHrBsN2-49" target="z3bMcTmMKauird0PgGkB-1" edge="1">
          <mxGeometry relative="1" as="geometry" />
        </mxCell>
        <mxCell id="uqprIy-3fPHbmCHrBsN2-49" value="B MON 0" style="rhombus;whiteSpace=wrap;html=1;rounded=1;shadow=1;labelBackgroundColor=none;strokeWidth=1;fontFamily=Verdana;fontSize=8;align=center;gradientDirection=north;fillColor=#4F3F00;" parent="1" vertex="1">
          <mxGeometry x="1574" y="1796" width="100" height="60" as="geometry" />
        </mxCell>
        <mxCell id="KzRNm1VHRkXIbj-EOXEV-83" style="edgeStyle=orthogonalEdgeStyle;rounded=1;orthogonalLoop=1;jettySize=auto;html=1;entryX=0.5;entryY=0;entryDx=0;entryDy=0;" parent="1" source="KzRNm1VHRkXIbj-EOXEV-1" target="ldbtIe3ePr57GWi5LKob-76" edge="1">
          <mxGeometry relative="1" as="geometry">
            <mxPoint x="1616.5000000000005" y="2058" as="targetPoint" />
          </mxGeometry>
        </mxCell>
        <mxCell id="KzRNm1VHRkXIbj-EOXEV-1" value="Míralo bien" style="whiteSpace=wrap;html=1;rounded=1;shadow=1;labelBackgroundColor=none;strokeWidth=1;fontFamily=Verdana;fontSize=8;align=center;spacing=6;fillColor=#e3c800;fontColor=#000000;strokeColor=#F0F0F0;" parent="1" vertex="1">
          <mxGeometry x="1564.5" y="1932" width="120" height="40" as="geometry" />
        </mxCell>
        <mxCell id="ldbtIe3ePr57GWi5LKob-78" style="edgeStyle=orthogonalEdgeStyle;rounded=1;orthogonalLoop=1;jettySize=auto;html=1;" parent="1" source="KzRNm1VHRkXIbj-EOXEV-3" target="ldbtIe3ePr57GWi5LKob-77" edge="1">
          <mxGeometry relative="1" as="geometry" />
        </mxCell>
        <mxCell id="KzRNm1VHRkXIbj-EOXEV-3" value="Atácalo" style="whiteSpace=wrap;html=1;rounded=1;shadow=1;labelBackgroundColor=none;strokeWidth=1;fontFamily=Verdana;fontSize=8;align=center;spacing=6;" parent="1" vertex="1">
          <mxGeometry x="1945" y="1932" width="120" height="40" as="geometry" />
        </mxCell>
        <mxCell id="KzRNm1VHRkXIbj-EOXEV-57" style="edgeStyle=orthogonalEdgeStyle;rounded=1;orthogonalLoop=1;jettySize=auto;html=1;entryX=0.5;entryY=0;entryDx=0;entryDy=0;" parent="1" source="KzRNm1VHRkXIbj-EOXEV-7" target="KzRNm1VHRkXIbj-EOXEV-56" edge="1">
          <mxGeometry relative="1" as="geometry" />
        </mxCell>
        <mxCell id="KzRNm1VHRkXIbj-EOXEV-59" style="edgeStyle=orthogonalEdgeStyle;rounded=1;orthogonalLoop=1;jettySize=auto;html=1;entryX=0.5;entryY=0;entryDx=0;entryDy=0;" parent="1" source="KzRNm1VHRkXIbj-EOXEV-7" target="KzRNm1VHRkXIbj-EOXEV-58" edge="1">
          <mxGeometry relative="1" as="geometry" />
        </mxCell>
        <mxCell id="KzRNm1VHRkXIbj-EOXEV-7" value="B USU 1" style="rhombus;whiteSpace=wrap;html=1;rounded=1;shadow=1;labelBackgroundColor=none;strokeWidth=1;fontFamily=Verdana;fontSize=8;align=center;gradientDirection=north;fillColor=#4F3F00;" parent="1" vertex="1">
          <mxGeometry x="774" y="1796" width="100" height="60" as="geometry" />
        </mxCell>
        <mxCell id="RD_AgM2ZFSz2vdP_wPXj-8" style="edgeStyle=orthogonalEdgeStyle;rounded=1;orthogonalLoop=1;jettySize=auto;html=1;exitX=0.5;exitY=1;exitDx=0;exitDy=0;" parent="1" source="KzRNm1VHRkXIbj-EOXEV-9" target="ldbtIe3ePr57GWi5LKob-6" edge="1">
          <mxGeometry relative="1" as="geometry" />
        </mxCell>
        <mxCell id="KzRNm1VHRkXIbj-EOXEV-9" value="Adéntrate en la casa" style="whiteSpace=wrap;html=1;rounded=1;shadow=1;labelBackgroundColor=none;strokeWidth=1;fontFamily=Verdana;fontSize=8;align=center;spacing=6;" parent="1" vertex="1">
          <mxGeometry x="354" y="1179" width="120" height="40" as="geometry" />
        </mxCell>
        <mxCell id="KzRNm1VHRkXIbj-EOXEV-12" value="Sal de la casa" style="whiteSpace=wrap;html=1;rounded=1;shadow=1;labelBackgroundColor=none;strokeWidth=1;fontFamily=Verdana;fontSize=8;align=center;spacing=6;" parent="1" vertex="1">
          <mxGeometry x="70" y="1179" width="120" height="40" as="geometry" />
        </mxCell>
        <mxCell id="KzRNm1VHRkXIbj-EOXEV-21" style="edgeStyle=orthogonalEdgeStyle;rounded=1;orthogonalLoop=1;jettySize=auto;html=1;entryX=0.5;entryY=0;entryDx=0;entryDy=0;" parent="1" source="KzRNm1VHRkXIbj-EOXEV-16" target="KzRNm1VHRkXIbj-EOXEV-18" edge="1">
          <mxGeometry relative="1" as="geometry" />
        </mxCell>
        <mxCell id="KzRNm1VHRkXIbj-EOXEV-22" style="edgeStyle=orthogonalEdgeStyle;rounded=1;orthogonalLoop=1;jettySize=auto;html=1;entryX=0.5;entryY=0;entryDx=0;entryDy=0;" parent="1" source="KzRNm1VHRkXIbj-EOXEV-16" target="KzRNm1VHRkXIbj-EOXEV-20" edge="1">
          <mxGeometry relative="1" as="geometry" />
        </mxCell>
        <mxCell id="KzRNm1VHRkXIbj-EOXEV-25" style="edgeStyle=orthogonalEdgeStyle;rounded=1;orthogonalLoop=1;jettySize=auto;html=1;" parent="1" source="KzRNm1VHRkXIbj-EOXEV-16" target="KzRNm1VHRkXIbj-EOXEV-19" edge="1">
          <mxGeometry relative="1" as="geometry" />
        </mxCell>
        <mxCell id="KzRNm1VHRkXIbj-EOXEV-16" value="B OPE 1" style="rhombus;whiteSpace=wrap;html=1;rounded=1;shadow=1;labelBackgroundColor=none;strokeWidth=1;fontFamily=Verdana;fontSize=8;align=center;gradientDirection=north;fillColor=#4F3F00;" parent="1" vertex="1">
          <mxGeometry x="80" y="1421" width="100" height="60" as="geometry" />
        </mxCell>
        <mxCell id="ldbtIe3ePr57GWi5LKob-10" style="edgeStyle=orthogonalEdgeStyle;rounded=1;orthogonalLoop=1;jettySize=auto;html=1;" parent="1" source="KzRNm1VHRkXIbj-EOXEV-18" target="ldbtIe3ePr57GWi5LKob-9" edge="1">
          <mxGeometry relative="1" as="geometry" />
        </mxCell>
        <mxCell id="KzRNm1VHRkXIbj-EOXEV-18" value="Ve lento" style="whiteSpace=wrap;html=1;rounded=1;shadow=1;labelBackgroundColor=none;strokeWidth=1;fontFamily=Verdana;fontSize=8;align=center;spacing=6;" parent="1" vertex="1">
          <mxGeometry x="-137" y="1532" width="120" height="40" as="geometry" />
        </mxCell>
        <mxCell id="ldbtIe3ePr57GWi5LKob-7" style="edgeStyle=orthogonalEdgeStyle;rounded=1;orthogonalLoop=1;jettySize=auto;html=1;exitX=1;exitY=0.5;exitDx=0;exitDy=0;entryX=0.5;entryY=1;entryDx=0;entryDy=0;" parent="1" source="KzRNm1VHRkXIbj-EOXEV-19" target="tIU8I_EAOTodSFCsPTR--1" edge="1">
          <mxGeometry relative="1" as="geometry" />
        </mxCell>
        <mxCell id="KzRNm1VHRkXIbj-EOXEV-19" value="Devuélvete" style="whiteSpace=wrap;html=1;rounded=1;shadow=1;labelBackgroundColor=none;strokeWidth=1;fontFamily=Verdana;fontSize=8;align=center;spacing=6;fillColor=#647687;fontColor=#ffffff;strokeColor=#F0F0F0;" parent="1" vertex="1">
          <mxGeometry x="272" y="1527" width="120" height="40" as="geometry" />
        </mxCell>
        <mxCell id="ldbtIe3ePr57GWi5LKob-13" style="edgeStyle=orthogonalEdgeStyle;rounded=1;orthogonalLoop=1;jettySize=auto;html=1;" parent="1" source="KzRNm1VHRkXIbj-EOXEV-20" target="ldbtIe3ePr57GWi5LKob-12" edge="1">
          <mxGeometry relative="1" as="geometry" />
        </mxCell>
        <mxCell id="KzRNm1VHRkXIbj-EOXEV-20" value="Corre rápido" style="whiteSpace=wrap;html=1;rounded=1;shadow=1;labelBackgroundColor=none;strokeWidth=1;fontFamily=Verdana;fontSize=8;align=center;spacing=6;" parent="1" vertex="1">
          <mxGeometry x="70" y="1532" width="120" height="40" as="geometry" />
        </mxCell>
        <mxCell id="KzRNm1VHRkXIbj-EOXEV-23" value="Muerte" style="strokeWidth=1;html=1;shape=mxgraph.flowchart.terminator;whiteSpace=wrap;rounded=1;shadow=1;labelBackgroundColor=none;fontFamily=Verdana;fontSize=8;align=center;fillColor=#2A0303;" parent="1" vertex="1">
          <mxGeometry x="-107" y="1718" width="60" height="30" as="geometry" />
        </mxCell>
        <mxCell id="KzRNm1VHRkXIbj-EOXEV-31" style="edgeStyle=orthogonalEdgeStyle;rounded=1;orthogonalLoop=1;jettySize=auto;html=1;" parent="1" source="KzRNm1VHRkXIbj-EOXEV-28" target="KzRNm1VHRkXIbj-EOXEV-30" edge="1">
          <mxGeometry relative="1" as="geometry" />
        </mxCell>
        <mxCell id="KzRNm1VHRkXIbj-EOXEV-38" style="edgeStyle=orthogonalEdgeStyle;rounded=1;orthogonalLoop=1;jettySize=auto;html=1;entryX=0.5;entryY=0;entryDx=0;entryDy=0;" parent="1" source="KzRNm1VHRkXIbj-EOXEV-28" target="KzRNm1VHRkXIbj-EOXEV-37" edge="1">
          <mxGeometry relative="1" as="geometry" />
        </mxCell>
        <mxCell id="RD_AgM2ZFSz2vdP_wPXj-6" style="edgeStyle=orthogonalEdgeStyle;rounded=1;orthogonalLoop=1;jettySize=auto;html=1;" parent="1" source="KzRNm1VHRkXIbj-EOXEV-28" target="RD_AgM2ZFSz2vdP_wPXj-5" edge="1">
          <mxGeometry relative="1" as="geometry" />
        </mxCell>
        <mxCell id="KzRNm1VHRkXIbj-EOXEV-28" value="B BOPE 2" style="rhombus;whiteSpace=wrap;html=1;rounded=1;shadow=1;labelBackgroundColor=none;strokeWidth=1;fontFamily=Verdana;fontSize=8;align=center;gradientDirection=north;fillColor=#4F3F00;" parent="1" vertex="1">
          <mxGeometry x="80" y="1802" width="100" height="60" as="geometry" />
        </mxCell>
        <mxCell id="ldbtIe3ePr57GWi5LKob-17" style="edgeStyle=orthogonalEdgeStyle;rounded=1;orthogonalLoop=1;jettySize=auto;html=1;" parent="1" source="KzRNm1VHRkXIbj-EOXEV-30" target="ldbtIe3ePr57GWi5LKob-16" edge="1">
          <mxGeometry relative="1" as="geometry" />
        </mxCell>
        <mxCell id="KzRNm1VHRkXIbj-EOXEV-30" value="Ve al edificio rojo" style="whiteSpace=wrap;html=1;rounded=1;shadow=1;labelBackgroundColor=none;strokeWidth=1;fontFamily=Verdana;fontSize=8;align=center;spacing=6;" parent="1" vertex="1">
          <mxGeometry x="70" y="1938" width="120" height="40" as="geometry" />
        </mxCell>
        <mxCell id="KzRNm1VHRkXIbj-EOXEV-36" value="Muerte" style="strokeWidth=1;html=1;shape=mxgraph.flowchart.terminator;whiteSpace=wrap;rounded=1;shadow=1;labelBackgroundColor=none;fontFamily=Verdana;fontSize=8;align=center;fillColor=#2A0303;" parent="1" vertex="1">
          <mxGeometry x="302" y="2137" width="60" height="30" as="geometry" />
        </mxCell>
        <mxCell id="ldbtIe3ePr57GWi5LKob-19" style="edgeStyle=orthogonalEdgeStyle;rounded=1;orthogonalLoop=1;jettySize=auto;html=1;" parent="1" source="KzRNm1VHRkXIbj-EOXEV-37" target="ldbtIe3ePr57GWi5LKob-15" edge="1">
          <mxGeometry relative="1" as="geometry" />
        </mxCell>
        <mxCell id="KzRNm1VHRkXIbj-EOXEV-37" value="Ve al edificio azul" style="whiteSpace=wrap;html=1;rounded=1;shadow=1;labelBackgroundColor=none;strokeWidth=1;fontFamily=Verdana;fontSize=8;align=center;spacing=6;" parent="1" vertex="1">
          <mxGeometry x="272" y="1938" width="120" height="40" as="geometry" />
        </mxCell>
        <mxCell id="KzRNm1VHRkXIbj-EOXEV-46" style="edgeStyle=orthogonalEdgeStyle;rounded=1;orthogonalLoop=1;jettySize=auto;html=1;entryX=0.5;entryY=0;entryDx=0;entryDy=0;" parent="1" source="KzRNm1VHRkXIbj-EOXEV-41" target="KzRNm1VHRkXIbj-EOXEV-43" edge="1">
          <mxGeometry relative="1" as="geometry" />
        </mxCell>
        <mxCell id="KzRNm1VHRkXIbj-EOXEV-47" style="edgeStyle=orthogonalEdgeStyle;rounded=1;orthogonalLoop=1;jettySize=auto;html=1;" parent="1" source="KzRNm1VHRkXIbj-EOXEV-41" target="KzRNm1VHRkXIbj-EOXEV-44" edge="1">
          <mxGeometry relative="1" as="geometry" />
        </mxCell>
        <mxCell id="KzRNm1VHRkXIbj-EOXEV-41" value="B OPE 3" style="rhombus;whiteSpace=wrap;html=1;rounded=1;shadow=1;labelBackgroundColor=none;strokeWidth=1;fontFamily=Verdana;fontSize=8;align=center;gradientDirection=north;fillColor=#4F3F00;" parent="1" vertex="1">
          <mxGeometry x="80" y="2240" width="100" height="60" as="geometry" />
        </mxCell>
        <mxCell id="KzRNm1VHRkXIbj-EOXEV-51" style="edgeStyle=orthogonalEdgeStyle;rounded=1;orthogonalLoop=1;jettySize=auto;html=1;" parent="1" source="KzRNm1VHRkXIbj-EOXEV-43" target="ldbtIe3ePr57GWi5LKob-23" edge="1">
          <mxGeometry relative="1" as="geometry">
            <mxPoint x="129" y="2565" as="targetPoint" />
          </mxGeometry>
        </mxCell>
        <mxCell id="KzRNm1VHRkXIbj-EOXEV-43" value="Es irrelevante" style="whiteSpace=wrap;html=1;rounded=1;shadow=1;labelBackgroundColor=none;strokeWidth=1;fontFamily=Verdana;fontSize=8;align=center;spacing=6;" parent="1" vertex="1">
          <mxGeometry x="70" y="2359" width="120" height="40" as="geometry" />
        </mxCell>
        <mxCell id="KzRNm1VHRkXIbj-EOXEV-49" style="edgeStyle=orthogonalEdgeStyle;rounded=1;orthogonalLoop=1;jettySize=auto;html=1;entryX=0.5;entryY=0;entryDx=0;entryDy=0;" parent="1" source="KzRNm1VHRkXIbj-EOXEV-44" target="KzRNm1VHRkXIbj-EOXEV-48" edge="1">
          <mxGeometry relative="1" as="geometry" />
        </mxCell>
        <mxCell id="KzRNm1VHRkXIbj-EOXEV-44" value="Me llamo..." style="whiteSpace=wrap;html=1;rounded=1;shadow=1;labelBackgroundColor=none;strokeWidth=1;fontFamily=Verdana;fontSize=8;align=center;spacing=6;" parent="1" vertex="1">
          <mxGeometry x="264" y="2359" width="120" height="40" as="geometry" />
        </mxCell>
        <mxCell id="bXdIr6pcIIm7j5BVq9ug-39" style="edgeStyle=orthogonalEdgeStyle;rounded=1;orthogonalLoop=1;jettySize=auto;html=1;entryX=0.5;entryY=0;entryDx=0;entryDy=0;" parent="1" source="KzRNm1VHRkXIbj-EOXEV-48" target="YqCmkP_Uo_CHsXovVqEe-25" edge="1">
          <mxGeometry relative="1" as="geometry" />
        </mxCell>
        <mxCell id="KzRNm1VHRkXIbj-EOXEV-48" value="Nombre..." style="whiteSpace=wrap;html=1;rounded=1;shadow=1;labelBackgroundColor=none;strokeWidth=1;fontFamily=Verdana;fontSize=8;align=center;spacing=6;fillColor=#693F54;fontColor=#ffffff;strokeColor=#F0F0F0;" parent="1" vertex="1">
          <mxGeometry x="264" y="2450" width="120" height="40" as="geometry" />
        </mxCell>
        <mxCell id="ldbtIe3ePr57GWi5LKob-39" style="edgeStyle=orthogonalEdgeStyle;rounded=1;orthogonalLoop=1;jettySize=auto;html=1;" parent="1" source="KzRNm1VHRkXIbj-EOXEV-56" target="ldbtIe3ePr57GWi5LKob-36" edge="1">
          <mxGeometry relative="1" as="geometry" />
        </mxCell>
        <mxCell id="KzRNm1VHRkXIbj-EOXEV-56" value="Usa tu encendedor" style="whiteSpace=wrap;html=1;rounded=1;shadow=1;labelBackgroundColor=none;strokeWidth=1;fontFamily=Verdana;fontSize=8;align=center;spacing=6;fillColor=#a0522d;fontColor=#ffffff;strokeColor=#F0F0F0;" parent="1" vertex="1">
          <mxGeometry x="764" y="1932" width="120" height="40" as="geometry" />
        </mxCell>
        <mxCell id="ldbtIe3ePr57GWi5LKob-37" style="edgeStyle=orthogonalEdgeStyle;rounded=1;orthogonalLoop=1;jettySize=auto;html=1;" parent="1" source="KzRNm1VHRkXIbj-EOXEV-58" target="ldbtIe3ePr57GWi5LKob-35" edge="1">
          <mxGeometry relative="1" as="geometry" />
        </mxCell>
        <mxCell id="KzRNm1VHRkXIbj-EOXEV-58" value="Busca un interruptor a tientas" style="whiteSpace=wrap;html=1;rounded=1;shadow=1;labelBackgroundColor=none;strokeWidth=1;fontFamily=Verdana;fontSize=8;align=center;spacing=6;" parent="1" vertex="1">
          <mxGeometry x="601.5" y="1938" width="120" height="40" as="geometry" />
        </mxCell>
        <mxCell id="KzRNm1VHRkXIbj-EOXEV-60" value="Muerte" style="strokeWidth=1;html=1;shape=mxgraph.flowchart.terminator;whiteSpace=wrap;rounded=1;shadow=1;labelBackgroundColor=none;fontFamily=Verdana;fontSize=8;align=center;fillColor=#2A0303;" parent="1" vertex="1">
          <mxGeometry x="631.5" y="2137" width="60" height="30" as="geometry" />
        </mxCell>
        <mxCell id="ldbtIe3ePr57GWi5LKob-43" style="edgeStyle=orthogonalEdgeStyle;rounded=1;orthogonalLoop=1;jettySize=auto;html=1;entryX=1;entryY=0;entryDx=0;entryDy=0;" parent="1" source="KzRNm1VHRkXIbj-EOXEV-62" target="KzRNm1VHRkXIbj-EOXEV-71" edge="1">
          <mxGeometry relative="1" as="geometry" />
        </mxCell>
        <mxCell id="KzRNm1VHRkXIbj-EOXEV-62" value="USU 9" style="whiteSpace=wrap;html=1;rounded=1;shadow=1;labelBackgroundColor=none;strokeWidth=1;fontFamily=Verdana;fontSize=8;align=center;spacing=6;" parent="1" vertex="1">
          <mxGeometry x="939.5" y="2488" width="120" height="40" as="geometry" />
        </mxCell>
        <mxCell id="KzRNm1VHRkXIbj-EOXEV-75" style="edgeStyle=orthogonalEdgeStyle;rounded=1;orthogonalLoop=1;jettySize=auto;html=1;" parent="1" source="KzRNm1VHRkXIbj-EOXEV-71" target="KzRNm1VHRkXIbj-EOXEV-74" edge="1">
          <mxGeometry relative="1" as="geometry" />
        </mxCell>
        <mxCell id="KzRNm1VHRkXIbj-EOXEV-77" style="edgeStyle=orthogonalEdgeStyle;rounded=1;orthogonalLoop=1;jettySize=auto;html=1;" parent="1" source="KzRNm1VHRkXIbj-EOXEV-71" target="KzRNm1VHRkXIbj-EOXEV-76" edge="1">
          <mxGeometry relative="1" as="geometry" />
        </mxCell>
        <mxCell id="KzRNm1VHRkXIbj-EOXEV-78" style="edgeStyle=orthogonalEdgeStyle;rounded=1;orthogonalLoop=1;jettySize=auto;html=1;" parent="1" source="KzRNm1VHRkXIbj-EOXEV-71" target="KzRNm1VHRkXIbj-EOXEV-73" edge="1">
          <mxGeometry relative="1" as="geometry" />
        </mxCell>
        <mxCell id="bXdIr6pcIIm7j5BVq9ug-92" style="edgeStyle=orthogonalEdgeStyle;rounded=1;orthogonalLoop=1;jettySize=auto;html=1;exitX=1;exitY=0.5;exitDx=0;exitDy=0;" parent="1" source="KzRNm1VHRkXIbj-EOXEV-7" target="bXdIr6pcIIm7j5BVq9ug-91" edge="1">
          <mxGeometry relative="1" as="geometry" />
        </mxCell>
        <mxCell id="KzRNm1VHRkXIbj-EOXEV-71" value="B USU 2" style="rhombus;whiteSpace=wrap;html=1;rounded=1;shadow=1;labelBackgroundColor=none;strokeWidth=1;fontFamily=Verdana;fontSize=8;align=center;gradientDirection=north;fillColor=#4F3F00;" parent="1" vertex="1">
          <mxGeometry x="774" y="2594" width="100" height="60" as="geometry" />
        </mxCell>
        <mxCell id="ldbtIe3ePr57GWi5LKob-50" style="edgeStyle=orthogonalEdgeStyle;rounded=1;orthogonalLoop=1;jettySize=auto;html=1;" parent="1" source="KzRNm1VHRkXIbj-EOXEV-73" target="ldbtIe3ePr57GWi5LKob-47" edge="1">
          <mxGeometry relative="1" as="geometry" />
        </mxCell>
        <mxCell id="KzRNm1VHRkXIbj-EOXEV-73" value="&lt;span style=&quot;color: rgb(240 , 240 , 240)&quot;&gt;¿Qué ves en la habitación?&lt;/span&gt;" style="whiteSpace=wrap;html=1;rounded=1;shadow=1;labelBackgroundColor=none;strokeWidth=1;fontFamily=Verdana;fontSize=8;align=center;spacing=6;" parent="1" vertex="1">
          <mxGeometry x="587.5" y="2724" width="120" height="40" as="geometry" />
        </mxCell>
        <mxCell id="ldbtIe3ePr57GWi5LKob-49" style="edgeStyle=orthogonalEdgeStyle;rounded=1;orthogonalLoop=1;jettySize=auto;html=1;" parent="1" source="KzRNm1VHRkXIbj-EOXEV-74" target="ldbtIe3ePr57GWi5LKob-46" edge="1">
          <mxGeometry relative="1" as="geometry" />
        </mxCell>
        <mxCell id="KzRNm1VHRkXIbj-EOXEV-74" value="Busca una puerta" style="whiteSpace=wrap;html=1;rounded=1;shadow=1;labelBackgroundColor=none;strokeWidth=1;fontFamily=Verdana;fontSize=8;align=center;spacing=6;" parent="1" vertex="1">
          <mxGeometry x="764" y="2721" width="120" height="40" as="geometry" />
        </mxCell>
        <mxCell id="ldbtIe3ePr57GWi5LKob-48" style="edgeStyle=orthogonalEdgeStyle;rounded=1;orthogonalLoop=1;jettySize=auto;html=1;" parent="1" source="KzRNm1VHRkXIbj-EOXEV-76" target="ldbtIe3ePr57GWi5LKob-45" edge="1">
          <mxGeometry relative="1" as="geometry" />
        </mxCell>
        <mxCell id="KzRNm1VHRkXIbj-EOXEV-76" value="&lt;span style=&quot;color: rgb(255 , 255 , 255)&quot;&gt;Busca algo útil&lt;/span&gt;" style="whiteSpace=wrap;html=1;rounded=1;shadow=1;labelBackgroundColor=none;strokeWidth=1;fontFamily=Verdana;fontSize=8;align=center;spacing=6;fillColor=#2B2087;fontColor=#ffffff;strokeColor=#F0F0F0;" parent="1" vertex="1">
          <mxGeometry x="940" y="2721" width="120" height="40" as="geometry" />
        </mxCell>
        <mxCell id="KzRNm1VHRkXIbj-EOXEV-87" style="edgeStyle=orthogonalEdgeStyle;rounded=1;orthogonalLoop=1;jettySize=auto;html=1;" parent="1" source="KzRNm1VHRkXIbj-EOXEV-82" target="KzRNm1VHRkXIbj-EOXEV-84" edge="1">
          <mxGeometry relative="1" as="geometry" />
        </mxCell>
        <mxCell id="bXdIr6pcIIm7j5BVq9ug-57" style="edgeStyle=orthogonalEdgeStyle;rounded=1;orthogonalLoop=1;jettySize=auto;html=1;" parent="1" source="KzRNm1VHRkXIbj-EOXEV-82" target="_sz2q_1dFznbGPaKoURx-14" edge="1">
          <mxGeometry relative="1" as="geometry" />
        </mxCell>
        <mxCell id="smO6bI4jZ_qUpubtPsuz-4" style="edgeStyle=orthogonalEdgeStyle;rounded=1;orthogonalLoop=1;jettySize=auto;html=1;" parent="1" source="KzRNm1VHRkXIbj-EOXEV-82" target="smO6bI4jZ_qUpubtPsuz-3" edge="1">
          <mxGeometry relative="1" as="geometry" />
        </mxCell>
        <mxCell id="KzRNm1VHRkXIbj-EOXEV-82" value="B MON 1" style="rhombus;whiteSpace=wrap;html=1;rounded=1;shadow=1;labelBackgroundColor=none;strokeWidth=1;fontFamily=Verdana;fontSize=8;align=center;gradientDirection=north;fillColor=#4F3F00;" parent="1" vertex="1">
          <mxGeometry x="1574.5" y="2234" width="100" height="60" as="geometry" />
        </mxCell>
        <mxCell id="ldbtIe3ePr57GWi5LKob-82" style="edgeStyle=orthogonalEdgeStyle;rounded=1;orthogonalLoop=1;jettySize=auto;html=1;" parent="1" source="KzRNm1VHRkXIbj-EOXEV-84" target="ldbtIe3ePr57GWi5LKob-81" edge="1">
          <mxGeometry relative="1" as="geometry" />
        </mxCell>
        <mxCell id="KzRNm1VHRkXIbj-EOXEV-84" value="Ayúdale" style="whiteSpace=wrap;html=1;rounded=1;shadow=1;labelBackgroundColor=none;strokeWidth=1;fontFamily=Verdana;fontSize=8;align=center;spacing=6;" parent="1" vertex="1">
          <mxGeometry x="1564.5" y="2356" width="120" height="40" as="geometry" />
        </mxCell>
        <mxCell id="KzRNm1VHRkXIbj-EOXEV-93" style="edgeStyle=orthogonalEdgeStyle;rounded=1;orthogonalLoop=1;jettySize=auto;html=1;" parent="1" source="KzRNm1VHRkXIbj-EOXEV-88" target="KzRNm1VHRkXIbj-EOXEV-92" edge="1">
          <mxGeometry relative="1" as="geometry" />
        </mxCell>
        <mxCell id="KzRNm1VHRkXIbj-EOXEV-88" value="USU 13" style="whiteSpace=wrap;html=1;rounded=1;shadow=1;labelBackgroundColor=none;strokeWidth=1;fontFamily=Verdana;fontSize=8;align=center;spacing=6;" parent="1" vertex="1">
          <mxGeometry x="764" y="3035" width="120" height="40" as="geometry" />
        </mxCell>
        <mxCell id="KzRNm1VHRkXIbj-EOXEV-98" style="edgeStyle=orthogonalEdgeStyle;rounded=1;orthogonalLoop=1;jettySize=auto;html=1;" parent="1" source="KzRNm1VHRkXIbj-EOXEV-92" target="KzRNm1VHRkXIbj-EOXEV-97" edge="1">
          <mxGeometry relative="1" as="geometry" />
        </mxCell>
        <mxCell id="ldbtIe3ePr57GWi5LKob-57" style="edgeStyle=orthogonalEdgeStyle;rounded=1;orthogonalLoop=1;jettySize=auto;html=1;" parent="1" source="KzRNm1VHRkXIbj-EOXEV-92" target="ldbtIe3ePr57GWi5LKob-56" edge="1">
          <mxGeometry relative="1" as="geometry" />
        </mxCell>
        <mxCell id="KzRNm1VHRkXIbj-EOXEV-92" value="B USU 3" style="rhombus;whiteSpace=wrap;html=1;rounded=1;shadow=1;labelBackgroundColor=none;strokeWidth=1;fontFamily=Verdana;fontSize=8;align=center;gradientDirection=north;fillColor=#4F3F00;" parent="1" vertex="1">
          <mxGeometry x="774" y="3191" width="100" height="60" as="geometry" />
        </mxCell>
        <mxCell id="KzRNm1VHRkXIbj-EOXEV-101" style="edgeStyle=orthogonalEdgeStyle;rounded=1;orthogonalLoop=1;jettySize=auto;html=1;exitX=0.5;exitY=1;exitDx=0;exitDy=0;" parent="1" source="KzRNm1VHRkXIbj-EOXEV-95" target="bXdIr6pcIIm7j5BVq9ug-1" edge="1">
          <mxGeometry relative="1" as="geometry">
            <mxPoint x="884.5" y="3679" as="targetPoint" />
          </mxGeometry>
        </mxCell>
        <mxCell id="KzRNm1VHRkXIbj-EOXEV-95" value="Pregunta..." style="whiteSpace=wrap;html=1;rounded=1;shadow=1;labelBackgroundColor=none;strokeWidth=1;fontFamily=Verdana;fontSize=8;align=center;spacing=6;fillColor=#76608a;fontColor=#ffffff;strokeColor=#432D57;" parent="1" vertex="1">
          <mxGeometry x="940" y="3526" width="120" height="40" as="geometry" />
        </mxCell>
        <mxCell id="_sz2q_1dFznbGPaKoURx-10" style="edgeStyle=orthogonalEdgeStyle;rounded=1;orthogonalLoop=1;jettySize=auto;html=1;" parent="1" source="KzRNm1VHRkXIbj-EOXEV-97" target="_sz2q_1dFznbGPaKoURx-41" edge="1">
          <mxGeometry relative="1" as="geometry" />
        </mxCell>
        <mxCell id="_sz2q_1dFznbGPaKoURx-12" style="edgeStyle=orthogonalEdgeStyle;rounded=1;orthogonalLoop=1;jettySize=auto;html=1;" parent="1" source="KzRNm1VHRkXIbj-EOXEV-92" target="_sz2q_1dFznbGPaKoURx-11" edge="1">
          <mxGeometry relative="1" as="geometry" />
        </mxCell>
        <mxCell id="KzRNm1VHRkXIbj-EOXEV-97" value="Quédate ahi" style="whiteSpace=wrap;html=1;rounded=1;shadow=1;labelBackgroundColor=none;strokeWidth=1;fontFamily=Verdana;fontSize=8;align=center;spacing=6;" parent="1" vertex="1">
          <mxGeometry x="764" y="3309" width="120" height="40" as="geometry" />
        </mxCell>
        <mxCell id="_sz2q_1dFznbGPaKoURx-19" style="edgeStyle=orthogonalEdgeStyle;rounded=1;orthogonalLoop=1;jettySize=auto;html=1;" parent="1" source="_sz2q_1dFznbGPaKoURx-8" target="_sz2q_1dFznbGPaKoURx-18" edge="1">
          <mxGeometry relative="1" as="geometry">
            <mxPoint x="1434.500000000001" y="2705" as="targetPoint" />
          </mxGeometry>
        </mxCell>
        <mxCell id="_sz2q_1dFznbGPaKoURx-20" style="edgeStyle=orthogonalEdgeStyle;rounded=1;orthogonalLoop=1;jettySize=auto;html=1;" parent="1" source="_sz2q_1dFznbGPaKoURx-8" target="_sz2q_1dFznbGPaKoURx-17" edge="1">
          <mxGeometry relative="1" as="geometry" />
        </mxCell>
        <mxCell id="smO6bI4jZ_qUpubtPsuz-6" style="edgeStyle=orthogonalEdgeStyle;rounded=1;orthogonalLoop=1;jettySize=auto;html=1;" parent="1" source="_sz2q_1dFznbGPaKoURx-8" target="smO6bI4jZ_qUpubtPsuz-5" edge="1">
          <mxGeometry relative="1" as="geometry" />
        </mxCell>
        <mxCell id="_sz2q_1dFznbGPaKoURx-8" value="B MON 2" style="rhombus;whiteSpace=wrap;html=1;rounded=1;shadow=1;labelBackgroundColor=none;strokeWidth=1;fontFamily=Verdana;fontSize=8;align=center;gradientDirection=north;fillColor=#4F3F00;" parent="1" vertex="1">
          <mxGeometry x="1574.5" y="2594" width="100" height="60" as="geometry" />
        </mxCell>
        <mxCell id="_sz2q_1dFznbGPaKoURx-13" style="edgeStyle=orthogonalEdgeStyle;rounded=1;orthogonalLoop=1;jettySize=auto;html=1;" parent="1" source="_sz2q_1dFznbGPaKoURx-11" target="ldbtIe3ePr57GWi5LKob-54" edge="1">
          <mxGeometry relative="1" as="geometry" />
        </mxCell>
        <mxCell id="_sz2q_1dFznbGPaKoURx-11" value="Usa la llave" style="whiteSpace=wrap;html=1;rounded=1;shadow=1;labelBackgroundColor=none;strokeWidth=1;fontFamily=Verdana;fontSize=8;align=center;spacing=6;fillColor=#2B2087;fontColor=#ffffff;strokeColor=#F0F0F0;" parent="1" vertex="1">
          <mxGeometry x="939.5" y="3309" width="120" height="40" as="geometry" />
        </mxCell>
        <mxCell id="ldbtIe3ePr57GWi5LKob-41" style="edgeStyle=orthogonalEdgeStyle;rounded=1;orthogonalLoop=1;jettySize=auto;html=1;entryX=1;entryY=0.5;entryDx=0;entryDy=0;exitX=0.5;exitY=1;exitDx=0;exitDy=0;" parent="1" source="_sz2q_1dFznbGPaKoURx-14" target="_Uk2ADQKiKTDVJzTZTwr-1" edge="1">
          <mxGeometry relative="1" as="geometry" />
        </mxCell>
        <mxCell id="_sz2q_1dFznbGPaKoURx-14" value="&lt;span style=&quot;color: rgb(240 , 240 , 240)&quot;&gt;Pídele ayuda&lt;/span&gt;" style="whiteSpace=wrap;html=1;rounded=1;shadow=1;labelBackgroundColor=none;strokeWidth=1;fontFamily=Verdana;fontSize=8;align=center;spacing=6;" parent="1" vertex="1">
          <mxGeometry x="1387" y="2356" width="120" height="40" as="geometry" />
        </mxCell>
        <mxCell id="ldbtIe3ePr57GWi5LKob-88" style="edgeStyle=orthogonalEdgeStyle;rounded=1;orthogonalLoop=1;jettySize=auto;html=1;" parent="1" source="_sz2q_1dFznbGPaKoURx-17" target="ldbtIe3ePr57GWi5LKob-84" edge="1">
          <mxGeometry relative="1" as="geometry" />
        </mxCell>
        <mxCell id="_sz2q_1dFznbGPaKoURx-17" value="Acércate" style="whiteSpace=wrap;html=1;rounded=1;shadow=1;labelBackgroundColor=none;strokeWidth=1;fontFamily=Verdana;fontSize=8;align=center;spacing=6;fillColor=#e3c800;fontColor=#000000;strokeColor=#F0F0F0;" parent="1" vertex="1">
          <mxGeometry x="1564.5" y="2721" width="120" height="40" as="geometry" />
        </mxCell>
        <mxCell id="ldbtIe3ePr57GWi5LKob-86" style="edgeStyle=orthogonalEdgeStyle;rounded=1;orthogonalLoop=1;jettySize=auto;html=1;" parent="1" source="_sz2q_1dFznbGPaKoURx-18" target="ldbtIe3ePr57GWi5LKob-85" edge="1">
          <mxGeometry relative="1" as="geometry" />
        </mxCell>
        <mxCell id="_sz2q_1dFznbGPaKoURx-18" value="Vete" style="whiteSpace=wrap;html=1;rounded=1;shadow=1;labelBackgroundColor=none;strokeWidth=1;fontFamily=Verdana;fontSize=8;align=center;spacing=6;" parent="1" vertex="1">
          <mxGeometry x="1385" y="2721" width="120" height="40" as="geometry" />
        </mxCell>
        <mxCell id="_sz2q_1dFznbGPaKoURx-29" style="edgeStyle=orthogonalEdgeStyle;rounded=1;orthogonalLoop=1;jettySize=auto;html=1;" parent="1" source="_sz2q_1dFznbGPaKoURx-24" target="_sz2q_1dFznbGPaKoURx-27" edge="1">
          <mxGeometry relative="1" as="geometry" />
        </mxCell>
        <mxCell id="_sz2q_1dFznbGPaKoURx-30" style="edgeStyle=orthogonalEdgeStyle;rounded=1;orthogonalLoop=1;jettySize=auto;html=1;" parent="1" source="_sz2q_1dFznbGPaKoURx-24" target="_sz2q_1dFznbGPaKoURx-26" edge="1">
          <mxGeometry relative="1" as="geometry" />
        </mxCell>
        <mxCell id="_sz2q_1dFznbGPaKoURx-31" style="edgeStyle=orthogonalEdgeStyle;rounded=1;orthogonalLoop=1;jettySize=auto;html=1;" parent="1" source="_sz2q_1dFznbGPaKoURx-24" target="_sz2q_1dFznbGPaKoURx-32" edge="1">
          <mxGeometry relative="1" as="geometry">
            <mxPoint x="1820" y="3307" as="targetPoint" />
          </mxGeometry>
        </mxCell>
        <mxCell id="_sz2q_1dFznbGPaKoURx-24" value="B MON 3" style="rhombus;whiteSpace=wrap;html=1;rounded=1;shadow=1;labelBackgroundColor=none;strokeWidth=1;fontFamily=Verdana;fontSize=8;align=center;gradientDirection=north;fillColor=#4F3F00;" parent="1" vertex="1">
          <mxGeometry x="1574" y="3191" width="100" height="60" as="geometry" />
        </mxCell>
        <mxCell id="ldbtIe3ePr57GWi5LKob-92" style="edgeStyle=orthogonalEdgeStyle;rounded=1;orthogonalLoop=1;jettySize=auto;html=1;" parent="1" source="_sz2q_1dFznbGPaKoURx-26" target="ldbtIe3ePr57GWi5LKob-90" edge="1">
          <mxGeometry relative="1" as="geometry" />
        </mxCell>
        <mxCell id="_sz2q_1dFznbGPaKoURx-26" value="Preguntale quién eres" style="whiteSpace=wrap;html=1;rounded=1;shadow=1;labelBackgroundColor=none;strokeWidth=1;fontFamily=Verdana;fontSize=8;align=center;spacing=6;" parent="1" vertex="1">
          <mxGeometry x="1391" y="3310" width="120" height="40" as="geometry" />
        </mxCell>
        <mxCell id="_sz2q_1dFznbGPaKoURx-34" style="edgeStyle=orthogonalEdgeStyle;rounded=1;orthogonalLoop=1;jettySize=auto;html=1;" parent="1" source="_sz2q_1dFznbGPaKoURx-27" target="_sz2q_1dFznbGPaKoURx-33" edge="1">
          <mxGeometry relative="1" as="geometry" />
        </mxCell>
        <mxCell id="_sz2q_1dFznbGPaKoURx-27" value="Preguntale quién es" style="whiteSpace=wrap;html=1;rounded=1;shadow=1;labelBackgroundColor=none;strokeWidth=1;fontFamily=Verdana;fontSize=8;align=center;spacing=6;fillColor=#693F54;" parent="1" vertex="1">
          <mxGeometry x="1564.5" y="3309" width="120" height="40" as="geometry" />
        </mxCell>
        <mxCell id="_sz2q_1dFznbGPaKoURx-40" style="edgeStyle=orthogonalEdgeStyle;rounded=1;orthogonalLoop=1;jettySize=auto;html=1;" parent="1" source="_sz2q_1dFznbGPaKoURx-32" target="_sz2q_1dFznbGPaKoURx-39" edge="1">
          <mxGeometry relative="1" as="geometry" />
        </mxCell>
        <mxCell id="_sz2q_1dFznbGPaKoURx-32" value="Pregunta..." style="whiteSpace=wrap;html=1;rounded=1;shadow=1;labelBackgroundColor=none;strokeWidth=1;fontFamily=Verdana;fontSize=8;align=center;spacing=6;fillColor=#76608a;fontColor=#ffffff;strokeColor=#F0F0F0;" parent="1" vertex="1">
          <mxGeometry x="1750" y="3309" width="120" height="40" as="geometry" />
        </mxCell>
        <mxCell id="ldbtIe3ePr57GWi5LKob-94" style="edgeStyle=orthogonalEdgeStyle;rounded=1;orthogonalLoop=1;jettySize=auto;html=1;" parent="1" source="_sz2q_1dFznbGPaKoURx-33" target="ldbtIe3ePr57GWi5LKob-91" edge="1">
          <mxGeometry relative="1" as="geometry" />
        </mxCell>
        <mxCell id="_sz2q_1dFznbGPaKoURx-33" value="Nombre..." style="whiteSpace=wrap;html=1;rounded=1;shadow=1;labelBackgroundColor=none;strokeWidth=1;fontFamily=Verdana;fontSize=8;align=center;spacing=6;fillColor=#693F54;fontColor=#ffffff;strokeColor=#F0F0F0;" parent="1" vertex="1">
          <mxGeometry x="1564" y="3419" width="120" height="40" as="geometry" />
        </mxCell>
        <mxCell id="smO6bI4jZ_qUpubtPsuz-31" style="edgeStyle=orthogonalEdgeStyle;rounded=1;orthogonalLoop=1;jettySize=auto;html=1;" parent="1" source="_sz2q_1dFznbGPaKoURx-39" target="smO6bI4jZ_qUpubtPsuz-12" edge="1">
          <mxGeometry relative="1" as="geometry" />
        </mxCell>
        <mxCell id="_sz2q_1dFznbGPaKoURx-39" value="Animación Autor&lt;br&gt;" style="whiteSpace=wrap;html=1;rounded=1;shadow=1;labelBackgroundColor=none;strokeWidth=1;fontFamily=Verdana;fontSize=8;align=center;spacing=6;fillColor=#6d8764;fontColor=#ffffff;strokeColor=#3A5431;" parent="1" vertex="1">
          <mxGeometry x="1750" y="3526" width="120" height="40" as="geometry" />
        </mxCell>
        <mxCell id="_sz2q_1dFznbGPaKoURx-42" style="edgeStyle=orthogonalEdgeStyle;rounded=1;orthogonalLoop=1;jettySize=auto;html=1;entryX=0.5;entryY=0;entryDx=0;entryDy=0;" parent="1" source="_sz2q_1dFznbGPaKoURx-41" target="N5EEbq5jMqHb_xn9fPmv-1" edge="1">
          <mxGeometry relative="1" as="geometry">
            <mxPoint x="843" y="3535" as="targetPoint" />
          </mxGeometry>
        </mxCell>
        <mxCell id="_sz2q_1dFznbGPaKoURx-41" value="USU 15" style="whiteSpace=wrap;html=1;rounded=1;shadow=1;labelBackgroundColor=none;strokeWidth=1;fontFamily=Verdana;fontSize=8;align=center;spacing=6;" parent="1" vertex="1">
          <mxGeometry x="764" y="3419" width="120" height="40" as="geometry" />
        </mxCell>
        <mxCell id="ldbtIe3ePr57GWi5LKob-1" value="OPE 1" style="whiteSpace=wrap;html=1;rounded=1;shadow=1;labelBackgroundColor=none;strokeWidth=1;fontFamily=Verdana;fontSize=8;align=center;" parent="1" vertex="1">
          <mxGeometry x="569" y="839" width="120" height="40" as="geometry" />
        </mxCell>
        <mxCell id="ldbtIe3ePr57GWi5LKob-3" style="edgeStyle=orthogonalEdgeStyle;rounded=1;orthogonalLoop=1;jettySize=auto;html=1;entryX=0.5;entryY=0;entryDx=0;entryDy=0;" parent="1" source="ldbtIe3ePr57GWi5LKob-2" target="oMqR89CrZ4jayvg0T-Ow-2" edge="1">
          <mxGeometry relative="1" as="geometry">
            <mxPoint x="409" y="913" as="targetPoint" />
          </mxGeometry>
        </mxCell>
        <mxCell id="ldbtIe3ePr57GWi5LKob-2" value="OPE 0" style="whiteSpace=wrap;html=1;rounded=1;shadow=1;labelBackgroundColor=none;strokeWidth=1;fontFamily=Verdana;fontSize=8;align=center;fillColor=#2A2A2A;fontColor=#ffffff;strokeColor=#F0F0F0;" parent="1" vertex="1">
          <mxGeometry x="354" y="839" width="120" height="40" as="geometry" />
        </mxCell>
        <mxCell id="ldbtIe3ePr57GWi5LKob-8" style="edgeStyle=orthogonalEdgeStyle;rounded=1;orthogonalLoop=1;jettySize=auto;html=1;entryX=0;entryY=0.5;entryDx=0;entryDy=0;" parent="1" source="ldbtIe3ePr57GWi5LKob-6" target="bXdIr6pcIIm7j5BVq9ug-4" edge="1">
          <mxGeometry relative="1" as="geometry" />
        </mxCell>
        <mxCell id="ldbtIe3ePr57GWi5LKob-6" value="USU 0" style="whiteSpace=wrap;html=1;rounded=1;shadow=1;labelBackgroundColor=none;strokeWidth=1;fontFamily=Verdana;fontSize=8;align=center;" parent="1" vertex="1">
          <mxGeometry x="354" y="1274" width="120" height="40" as="geometry" />
        </mxCell>
        <mxCell id="ldbtIe3ePr57GWi5LKob-11" style="edgeStyle=orthogonalEdgeStyle;rounded=1;orthogonalLoop=1;jettySize=auto;html=1;" parent="1" source="ldbtIe3ePr57GWi5LKob-9" target="KzRNm1VHRkXIbj-EOXEV-23" edge="1">
          <mxGeometry relative="1" as="geometry" />
        </mxCell>
        <mxCell id="ldbtIe3ePr57GWi5LKob-9" value="OPE 4" style="whiteSpace=wrap;html=1;rounded=1;shadow=1;labelBackgroundColor=none;strokeWidth=1;fontFamily=Verdana;fontSize=8;align=center;" parent="1" vertex="1">
          <mxGeometry x="-137" y="1619" width="120" height="40" as="geometry" />
        </mxCell>
        <mxCell id="ldbtIe3ePr57GWi5LKob-14" style="edgeStyle=orthogonalEdgeStyle;rounded=1;orthogonalLoop=1;jettySize=auto;html=1;" parent="1" source="ldbtIe3ePr57GWi5LKob-12" target="KzRNm1VHRkXIbj-EOXEV-28" edge="1">
          <mxGeometry relative="1" as="geometry" />
        </mxCell>
        <mxCell id="ldbtIe3ePr57GWi5LKob-12" value="OPE 5" style="whiteSpace=wrap;html=1;rounded=1;shadow=1;labelBackgroundColor=none;strokeWidth=1;fontFamily=Verdana;fontSize=8;align=center;" parent="1" vertex="1">
          <mxGeometry x="70" y="1619" width="120" height="40" as="geometry" />
        </mxCell>
        <mxCell id="ldbtIe3ePr57GWi5LKob-20" style="edgeStyle=orthogonalEdgeStyle;rounded=1;orthogonalLoop=1;jettySize=auto;html=1;" parent="1" source="ldbtIe3ePr57GWi5LKob-15" target="KzRNm1VHRkXIbj-EOXEV-36" edge="1">
          <mxGeometry relative="1" as="geometry" />
        </mxCell>
        <mxCell id="ldbtIe3ePr57GWi5LKob-15" value="OPE 6" style="whiteSpace=wrap;html=1;rounded=1;shadow=1;labelBackgroundColor=none;strokeWidth=1;fontFamily=Verdana;fontSize=8;align=center;spacing=6;" parent="1" vertex="1">
          <mxGeometry x="272" y="2033" width="120" height="40" as="geometry" />
        </mxCell>
        <mxCell id="ldbtIe3ePr57GWi5LKob-21" style="edgeStyle=orthogonalEdgeStyle;rounded=1;orthogonalLoop=1;jettySize=auto;html=1;" parent="1" source="ldbtIe3ePr57GWi5LKob-16" target="KzRNm1VHRkXIbj-EOXEV-41" edge="1">
          <mxGeometry relative="1" as="geometry" />
        </mxCell>
        <mxCell id="ldbtIe3ePr57GWi5LKob-16" value="OPE 7" style="whiteSpace=wrap;html=1;rounded=1;shadow=1;labelBackgroundColor=none;strokeWidth=1;fontFamily=Verdana;fontSize=8;align=center;spacing=6;" parent="1" vertex="1">
          <mxGeometry x="70" y="2033" width="120" height="40" as="geometry" />
        </mxCell>
        <mxCell id="ldbtIe3ePr57GWi5LKob-24" style="edgeStyle=orthogonalEdgeStyle;rounded=1;orthogonalLoop=1;jettySize=auto;html=1;" parent="1" source="ldbtIe3ePr57GWi5LKob-23" target="bXdIr6pcIIm7j5BVq9ug-50" edge="1">
          <mxGeometry relative="1" as="geometry">
            <mxPoint x="130" y="2681" as="targetPoint" />
          </mxGeometry>
        </mxCell>
        <mxCell id="ldbtIe3ePr57GWi5LKob-23" value="OPE 8" style="whiteSpace=wrap;html=1;rounded=1;shadow=1;labelBackgroundColor=none;strokeWidth=1;fontFamily=Verdana;fontSize=8;align=center;spacing=6;" parent="1" vertex="1">
          <mxGeometry x="70" y="2637" width="120" height="40" as="geometry" />
        </mxCell>
        <mxCell id="ldbtIe3ePr57GWi5LKob-25" value="INTRO 0" style="whiteSpace=wrap;html=1;rounded=1;shadow=1;labelBackgroundColor=none;strokeWidth=1;fontFamily=Verdana;fontSize=8;align=center;" parent="1" vertex="1">
          <mxGeometry x="666" y="29" width="120" height="40" as="geometry" />
        </mxCell>
        <mxCell id="ldbtIe3ePr57GWi5LKob-28" style="edgeStyle=orthogonalEdgeStyle;rounded=1;orthogonalLoop=1;jettySize=auto;html=1;" parent="1" source="ldbtIe3ePr57GWi5LKob-26" target="60e70716793133e9-30" edge="1">
          <mxGeometry relative="1" as="geometry" />
        </mxCell>
        <mxCell id="ldbtIe3ePr57GWi5LKob-26" value="INTRO 5" style="whiteSpace=wrap;html=1;rounded=1;shadow=1;labelBackgroundColor=none;strokeWidth=1;fontFamily=Verdana;fontSize=8;align=center;" parent="1" vertex="1">
          <mxGeometry x="771.5" y="844" width="120" height="40" as="geometry" />
        </mxCell>
        <mxCell id="ldbtIe3ePr57GWi5LKob-31" style="edgeStyle=orthogonalEdgeStyle;rounded=1;orthogonalLoop=1;jettySize=auto;html=1;" parent="1" source="ldbtIe3ePr57GWi5LKob-29" target="KzRNm1VHRkXIbj-EOXEV-7" edge="1">
          <mxGeometry relative="1" as="geometry" />
        </mxCell>
        <mxCell id="ldbtIe3ePr57GWi5LKob-29" value="USU 2" style="whiteSpace=wrap;html=1;rounded=1;shadow=1;labelBackgroundColor=none;strokeWidth=1;fontFamily=Verdana;fontSize=8;align=center;spacing=6;" parent="1" vertex="1">
          <mxGeometry x="764" y="1621" width="120" height="40" as="geometry" />
        </mxCell>
        <mxCell id="ldbtIe3ePr57GWi5LKob-34" style="edgeStyle=orthogonalEdgeStyle;rounded=1;orthogonalLoop=1;jettySize=auto;html=1;entryX=0.5;entryY=0;entryDx=0;entryDy=0;exitX=0.5;exitY=1;exitDx=0;exitDy=0;entryPerimeter=0;" parent="1" source="ldbtIe3ePr57GWi5LKob-32" target="N5EEbq5jMqHb_xn9fPmv-8" edge="1">
          <mxGeometry relative="1" as="geometry" />
        </mxCell>
        <mxCell id="ldbtIe3ePr57GWi5LKob-32" value="USU 3" style="whiteSpace=wrap;html=1;rounded=1;shadow=1;labelBackgroundColor=none;strokeWidth=1;fontFamily=Verdana;fontSize=8;align=center;spacing=6;" parent="1" vertex="1">
          <mxGeometry x="959" y="1621" width="120" height="40" as="geometry" />
        </mxCell>
        <mxCell id="ldbtIe3ePr57GWi5LKob-38" style="edgeStyle=orthogonalEdgeStyle;rounded=1;orthogonalLoop=1;jettySize=auto;html=1;" parent="1" source="ldbtIe3ePr57GWi5LKob-35" target="KzRNm1VHRkXIbj-EOXEV-60" edge="1">
          <mxGeometry relative="1" as="geometry" />
        </mxCell>
        <mxCell id="ldbtIe3ePr57GWi5LKob-35" value="USU 4" style="whiteSpace=wrap;html=1;rounded=1;shadow=1;labelBackgroundColor=none;strokeWidth=1;fontFamily=Verdana;fontSize=8;align=center;spacing=6;" parent="1" vertex="1">
          <mxGeometry x="601.5" y="2033" width="120" height="40" as="geometry" />
        </mxCell>
        <mxCell id="ldbtIe3ePr57GWi5LKob-42" style="edgeStyle=orthogonalEdgeStyle;rounded=1;orthogonalLoop=1;jettySize=auto;html=1;" parent="1" source="ldbtIe3ePr57GWi5LKob-36" target="KzRNm1VHRkXIbj-EOXEV-71" edge="1">
          <mxGeometry relative="1" as="geometry" />
        </mxCell>
        <mxCell id="ldbtIe3ePr57GWi5LKob-36" value="USU 5" style="whiteSpace=wrap;html=1;rounded=1;shadow=1;labelBackgroundColor=none;strokeWidth=1;fontFamily=Verdana;fontSize=8;align=center;spacing=6;" parent="1" vertex="1">
          <mxGeometry x="764" y="2033" width="120" height="40" as="geometry" />
        </mxCell>
        <mxCell id="ldbtIe3ePr57GWi5LKob-51" style="edgeStyle=orthogonalEdgeStyle;rounded=1;orthogonalLoop=1;jettySize=auto;html=1;entryX=1;entryY=0.5;entryDx=0;entryDy=0;exitX=0.5;exitY=1;exitDx=0;exitDy=0;" parent="1" source="ldbtIe3ePr57GWi5LKob-45" target="KzRNm1VHRkXIbj-EOXEV-88" edge="1">
          <mxGeometry relative="1" as="geometry" />
        </mxCell>
        <mxCell id="ldbtIe3ePr57GWi5LKob-45" value="USU 12" style="whiteSpace=wrap;html=1;rounded=1;shadow=1;labelBackgroundColor=none;strokeWidth=1;fontFamily=Verdana;fontSize=8;align=center;spacing=6;" parent="1" vertex="1">
          <mxGeometry x="940" y="2834" width="120" height="40" as="geometry" />
        </mxCell>
        <mxCell id="ldbtIe3ePr57GWi5LKob-53" style="edgeStyle=orthogonalEdgeStyle;rounded=1;orthogonalLoop=1;jettySize=auto;html=1;" parent="1" source="ldbtIe3ePr57GWi5LKob-46" target="KzRNm1VHRkXIbj-EOXEV-88" edge="1">
          <mxGeometry relative="1" as="geometry" />
        </mxCell>
        <mxCell id="ldbtIe3ePr57GWi5LKob-46" value="USU 11" style="whiteSpace=wrap;html=1;rounded=1;shadow=1;labelBackgroundColor=none;strokeWidth=1;fontFamily=Verdana;fontSize=8;align=center;spacing=6;" parent="1" vertex="1">
          <mxGeometry x="764" y="2834" width="120" height="40" as="geometry" />
        </mxCell>
        <mxCell id="ldbtIe3ePr57GWi5LKob-52" style="edgeStyle=orthogonalEdgeStyle;rounded=1;orthogonalLoop=1;jettySize=auto;html=1;entryX=0;entryY=0.5;entryDx=0;entryDy=0;exitX=0.5;exitY=1;exitDx=0;exitDy=0;" parent="1" source="ldbtIe3ePr57GWi5LKob-47" target="KzRNm1VHRkXIbj-EOXEV-88" edge="1">
          <mxGeometry relative="1" as="geometry" />
        </mxCell>
        <mxCell id="ldbtIe3ePr57GWi5LKob-47" value="USU 10" style="whiteSpace=wrap;html=1;rounded=1;shadow=1;labelBackgroundColor=none;strokeWidth=1;fontFamily=Verdana;fontSize=8;align=center;spacing=6;" parent="1" vertex="1">
          <mxGeometry x="587.5" y="2834" width="120" height="40" as="geometry" />
        </mxCell>
        <mxCell id="ldbtIe3ePr57GWi5LKob-55" style="edgeStyle=orthogonalEdgeStyle;rounded=1;orthogonalLoop=1;jettySize=auto;html=1;" parent="1" source="ldbtIe3ePr57GWi5LKob-54" target="KzRNm1VHRkXIbj-EOXEV-95" edge="1">
          <mxGeometry relative="1" as="geometry">
            <mxPoint x="1000" y="3522" as="targetPoint" />
          </mxGeometry>
        </mxCell>
        <mxCell id="ldbtIe3ePr57GWi5LKob-54" value="USU 18" style="whiteSpace=wrap;html=1;rounded=1;shadow=1;labelBackgroundColor=none;strokeWidth=1;fontFamily=Verdana;fontSize=8;align=center;spacing=6;" parent="1" vertex="1">
          <mxGeometry x="940" y="3419" width="120" height="40" as="geometry" />
        </mxCell>
        <mxCell id="ldbtIe3ePr57GWi5LKob-68" style="edgeStyle=orthogonalEdgeStyle;rounded=1;orthogonalLoop=1;jettySize=auto;html=1;" parent="1" source="ldbtIe3ePr57GWi5LKob-56" target="ldbtIe3ePr57GWi5LKob-70" edge="1">
          <mxGeometry relative="1" as="geometry">
            <mxPoint x="647" y="3417.0000000000005" as="targetPoint" />
          </mxGeometry>
        </mxCell>
        <mxCell id="ldbtIe3ePr57GWi5LKob-56" value="Busca un lugar tranquilo" style="whiteSpace=wrap;html=1;rounded=1;shadow=1;labelBackgroundColor=none;strokeWidth=1;fontFamily=Verdana;fontSize=8;align=center;spacing=6;" parent="1" vertex="1">
          <mxGeometry x="587" y="3309" width="120" height="40" as="geometry" />
        </mxCell>
        <mxCell id="RD_AgM2ZFSz2vdP_wPXj-11" style="edgeStyle=orthogonalEdgeStyle;rounded=1;orthogonalLoop=1;jettySize=auto;html=1;" parent="1" source="ldbtIe3ePr57GWi5LKob-61" target="uqprIy-3fPHbmCHrBsN2-49" edge="1">
          <mxGeometry relative="1" as="geometry" />
        </mxCell>
        <mxCell id="ldbtIe3ePr57GWi5LKob-61" value="MON 1" style="whiteSpace=wrap;html=1;rounded=1;shadow=1;labelBackgroundColor=none;strokeWidth=1;fontFamily=Verdana;fontSize=8;align=center;spacing=6;" parent="1" vertex="1">
          <mxGeometry x="1564.5" y="1539" width="120" height="40" as="geometry" />
        </mxCell>
        <mxCell id="RD_AgM2ZFSz2vdP_wPXj-9" style="edgeStyle=orthogonalEdgeStyle;rounded=1;orthogonalLoop=1;jettySize=auto;html=1;entryX=0;entryY=0.5;entryDx=0;entryDy=0;" parent="1" source="ldbtIe3ePr57GWi5LKob-63" target="ldbtIe3ePr57GWi5LKob-61" edge="1">
          <mxGeometry relative="1" as="geometry">
            <mxPoint x="1352.0000000000005" y="1558.9999999999998" as="targetPoint" />
          </mxGeometry>
        </mxCell>
        <mxCell id="ldbtIe3ePr57GWi5LKob-63" value="Intenta verlo mejor" style="whiteSpace=wrap;html=1;rounded=1;shadow=1;labelBackgroundColor=none;strokeWidth=1;fontFamily=Verdana;fontSize=8;align=center;spacing=6;fillColor=#647687;strokeColor=#F0F0F0;" parent="1" vertex="1">
          <mxGeometry x="1144" y="1539" width="120" height="40" as="geometry" />
        </mxCell>
        <mxCell id="ldbtIe3ePr57GWi5LKob-72" style="edgeStyle=orthogonalEdgeStyle;rounded=1;orthogonalLoop=1;jettySize=auto;html=1;" parent="1" source="ldbtIe3ePr57GWi5LKob-70" target="ldbtIe3ePr57GWi5LKob-73" edge="1">
          <mxGeometry relative="1" as="geometry">
            <mxPoint x="647" y="3633.9999999999995" as="targetPoint" />
          </mxGeometry>
        </mxCell>
        <mxCell id="ldbtIe3ePr57GWi5LKob-70" value="USU 14" style="whiteSpace=wrap;html=1;rounded=1;shadow=1;labelBackgroundColor=none;strokeWidth=1;fontFamily=Verdana;fontSize=8;align=center;spacing=6;" parent="1" vertex="1">
          <mxGeometry x="587.5" y="3419" width="120" height="40" as="geometry" />
        </mxCell>
        <mxCell id="ldbtIe3ePr57GWi5LKob-75" style="edgeStyle=orthogonalEdgeStyle;rounded=1;orthogonalLoop=1;jettySize=auto;html=1;" parent="1" source="ldbtIe3ePr57GWi5LKob-73" target="ldbtIe3ePr57GWi5LKob-74" edge="1">
          <mxGeometry relative="1" as="geometry" />
        </mxCell>
        <mxCell id="ldbtIe3ePr57GWi5LKob-73" value="Animación Encuentro" style="whiteSpace=wrap;html=1;rounded=1;shadow=1;labelBackgroundColor=none;strokeWidth=1;fontFamily=Verdana;fontSize=8;align=center;spacing=6;fillColor=#6d8764;fontColor=#ffffff;strokeColor=#F0F0F0;" parent="1" vertex="1">
          <mxGeometry x="587.5" y="3731" width="120" height="40" as="geometry" />
        </mxCell>
        <mxCell id="ldbtIe3ePr57GWi5LKob-74" value="Muerte" style="strokeWidth=1;html=1;shape=mxgraph.flowchart.terminator;whiteSpace=wrap;rounded=1;shadow=1;labelBackgroundColor=none;fontFamily=Verdana;fontSize=8;align=center;fillColor=#2A0303;" parent="1" vertex="1">
          <mxGeometry x="617.5" y="3832" width="60" height="30" as="geometry" />
        </mxCell>
        <mxCell id="ldbtIe3ePr57GWi5LKob-80" style="edgeStyle=orthogonalEdgeStyle;rounded=1;orthogonalLoop=1;jettySize=auto;html=1;entryX=0.5;entryY=0;entryDx=0;entryDy=0;" parent="1" source="ldbtIe3ePr57GWi5LKob-76" target="_Uk2ADQKiKTDVJzTZTwr-3" edge="1">
          <mxGeometry relative="1" as="geometry" />
        </mxCell>
        <mxCell id="ldbtIe3ePr57GWi5LKob-76" value="MON 2" style="whiteSpace=wrap;html=1;rounded=1;shadow=1;labelBackgroundColor=none;strokeWidth=1;fontFamily=Verdana;fontSize=8;align=center;spacing=6;" parent="1" vertex="1">
          <mxGeometry x="1564" y="2033" width="120" height="40" as="geometry" />
        </mxCell>
        <mxCell id="ldbtIe3ePr57GWi5LKob-79" style="edgeStyle=orthogonalEdgeStyle;rounded=1;orthogonalLoop=1;jettySize=auto;html=1;" parent="1" source="ldbtIe3ePr57GWi5LKob-77" target="bXdIr6pcIIm7j5BVq9ug-55" edge="1">
          <mxGeometry relative="1" as="geometry">
            <mxPoint x="1976.9999999999995" y="2080" as="targetPoint" />
          </mxGeometry>
        </mxCell>
        <mxCell id="ldbtIe3ePr57GWi5LKob-77" value="MON 4" style="whiteSpace=wrap;html=1;rounded=1;shadow=1;labelBackgroundColor=none;strokeWidth=1;fontFamily=Verdana;fontSize=8;align=center;spacing=6;" parent="1" vertex="1">
          <mxGeometry x="1945" y="2030" width="120" height="40" as="geometry" />
        </mxCell>
        <mxCell id="ldbtIe3ePr57GWi5LKob-83" style="edgeStyle=orthogonalEdgeStyle;rounded=1;orthogonalLoop=1;jettySize=auto;html=1;" parent="1" source="ldbtIe3ePr57GWi5LKob-81" target="_sz2q_1dFznbGPaKoURx-8" edge="1">
          <mxGeometry relative="1" as="geometry" />
        </mxCell>
        <mxCell id="ldbtIe3ePr57GWi5LKob-81" value="MON 6" style="whiteSpace=wrap;html=1;rounded=1;shadow=1;labelBackgroundColor=none;strokeWidth=1;fontFamily=Verdana;fontSize=8;align=center;spacing=6;" parent="1" vertex="1">
          <mxGeometry x="1564.5" y="2453" width="120" height="40" as="geometry" />
        </mxCell>
        <mxCell id="ldbtIe3ePr57GWi5LKob-89" style="edgeStyle=orthogonalEdgeStyle;rounded=1;orthogonalLoop=1;jettySize=auto;html=1;" parent="1" source="ldbtIe3ePr57GWi5LKob-84" target="_sz2q_1dFznbGPaKoURx-24" edge="1">
          <mxGeometry relative="1" as="geometry" />
        </mxCell>
        <mxCell id="ldbtIe3ePr57GWi5LKob-84" value="MON 8" style="whiteSpace=wrap;html=1;rounded=1;shadow=1;labelBackgroundColor=none;strokeWidth=1;fontFamily=Verdana;fontSize=8;align=center;spacing=6;" parent="1" vertex="1">
          <mxGeometry x="1564" y="2834" width="120" height="40" as="geometry" />
        </mxCell>
        <mxCell id="ldbtIe3ePr57GWi5LKob-87" style="edgeStyle=orthogonalEdgeStyle;rounded=1;orthogonalLoop=1;jettySize=auto;html=1;" parent="1" source="ldbtIe3ePr57GWi5LKob-85" target="bXdIr6pcIIm7j5BVq9ug-58" edge="1">
          <mxGeometry relative="1" as="geometry">
            <mxPoint x="1445" y="2912" as="targetPoint" />
          </mxGeometry>
        </mxCell>
        <mxCell id="ldbtIe3ePr57GWi5LKob-85" value="MON 7" style="whiteSpace=wrap;html=1;rounded=1;shadow=1;labelBackgroundColor=none;strokeWidth=1;fontFamily=Verdana;fontSize=8;align=center;spacing=6;" parent="1" vertex="1">
          <mxGeometry x="1385" y="2834" width="120" height="40" as="geometry" />
        </mxCell>
        <mxCell id="ldbtIe3ePr57GWi5LKob-93" style="edgeStyle=orthogonalEdgeStyle;rounded=1;orthogonalLoop=1;jettySize=auto;html=1;entryX=0.5;entryY=0;entryDx=0;entryDy=0;entryPerimeter=0;" parent="1" source="ldbtIe3ePr57GWi5LKob-90" target="bXdIr6pcIIm7j5BVq9ug-64" edge="1">
          <mxGeometry relative="1" as="geometry">
            <mxPoint x="1451" y="3656" as="targetPoint" />
          </mxGeometry>
        </mxCell>
        <mxCell id="ldbtIe3ePr57GWi5LKob-90" value="MON 9" style="whiteSpace=wrap;html=1;rounded=1;shadow=1;labelBackgroundColor=none;strokeWidth=1;fontFamily=Verdana;fontSize=8;align=center;spacing=6;" parent="1" vertex="1">
          <mxGeometry x="1391" y="3526" width="120" height="40" as="geometry" />
        </mxCell>
        <mxCell id="ldbtIe3ePr57GWi5LKob-95" style="edgeStyle=orthogonalEdgeStyle;rounded=1;orthogonalLoop=1;jettySize=auto;html=1;entryX=0.5;entryY=0;entryDx=0;entryDy=0;entryPerimeter=0;" parent="1" source="ldbtIe3ePr57GWi5LKob-91" target="YqCmkP_Uo_CHsXovVqEe-11" edge="1">
          <mxGeometry relative="1" as="geometry">
            <mxPoint x="1624" y="3656" as="targetPoint" />
          </mxGeometry>
        </mxCell>
        <mxCell id="ldbtIe3ePr57GWi5LKob-91" value="MON 10" style="whiteSpace=wrap;html=1;rounded=1;shadow=1;labelBackgroundColor=none;strokeWidth=1;fontFamily=Verdana;fontSize=8;align=center;spacing=6;" parent="1" vertex="1">
          <mxGeometry x="1564.5" y="3526" width="120" height="40" as="geometry" />
        </mxCell>
        <mxCell id="RD_AgM2ZFSz2vdP_wPXj-27" style="edgeStyle=orthogonalEdgeStyle;rounded=1;orthogonalLoop=1;jettySize=auto;html=1;" parent="1" source="RD_AgM2ZFSz2vdP_wPXj-5" target="RD_AgM2ZFSz2vdP_wPXj-26" edge="1">
          <mxGeometry relative="1" as="geometry" />
        </mxCell>
        <mxCell id="RD_AgM2ZFSz2vdP_wPXj-5" value="Ve al edificio verde" style="whiteSpace=wrap;html=1;rounded=1;shadow=1;labelBackgroundColor=none;strokeWidth=1;fontFamily=Verdana;fontSize=8;align=center;spacing=6;" parent="1" vertex="1">
          <mxGeometry x="-409" y="1938" width="120" height="40" as="geometry" />
        </mxCell>
        <mxCell id="RD_AgM2ZFSz2vdP_wPXj-12" value="Ignóralo" style="whiteSpace=wrap;html=1;rounded=1;shadow=1;labelBackgroundColor=none;strokeWidth=1;fontFamily=Verdana;fontSize=8;align=center;spacing=6;" parent="1" vertex="1">
          <mxGeometry x="1387" y="1932" width="120" height="40" as="geometry" />
        </mxCell>
        <mxCell id="bXdIr6pcIIm7j5BVq9ug-13" style="edgeStyle=orthogonalEdgeStyle;rounded=1;orthogonalLoop=1;jettySize=auto;html=1;" parent="1" source="RD_AgM2ZFSz2vdP_wPXj-26" target="bXdIr6pcIIm7j5BVq9ug-12" edge="1">
          <mxGeometry relative="1" as="geometry" />
        </mxCell>
        <mxCell id="RD_AgM2ZFSz2vdP_wPXj-26" value="CAZA 0" style="whiteSpace=wrap;html=1;rounded=1;shadow=1;labelBackgroundColor=none;strokeWidth=1;fontFamily=Verdana;fontSize=8;align=center;spacing=6;" parent="1" vertex="1">
          <mxGeometry x="-409" y="2030" width="120" height="40" as="geometry" />
        </mxCell>
        <mxCell id="bXdIr6pcIIm7j5BVq9ug-3" style="edgeStyle=orthogonalEdgeStyle;rounded=1;orthogonalLoop=1;jettySize=auto;html=1;entryX=0.5;entryY=0;entryDx=0;entryDy=0;" parent="1" source="bXdIr6pcIIm7j5BVq9ug-1" target="CkFsvojRCZqZdOt64H9Z-5" edge="1">
          <mxGeometry relative="1" as="geometry" />
        </mxCell>
        <mxCell id="bXdIr6pcIIm7j5BVq9ug-1" value="USU 19.1" style="whiteSpace=wrap;html=1;rounded=1;shadow=1;labelBackgroundColor=none;strokeWidth=1;fontFamily=Verdana;fontSize=8;align=center;spacing=6;" parent="1" vertex="1">
          <mxGeometry x="940" y="3627" width="120" height="40" as="geometry" />
        </mxCell>
        <mxCell id="bXdIr6pcIIm7j5BVq9ug-6" style="edgeStyle=orthogonalEdgeStyle;rounded=1;orthogonalLoop=1;jettySize=auto;html=1;" parent="1" source="bXdIr6pcIIm7j5BVq9ug-4" target="uqprIy-3fPHbmCHrBsN2-13" edge="1">
          <mxGeometry relative="1" as="geometry" />
        </mxCell>
        <mxCell id="bXdIr6pcIIm7j5BVq9ug-4" value="MON 0" style="whiteSpace=wrap;html=1;rounded=1;shadow=1;labelBackgroundColor=none;strokeWidth=1;fontFamily=Verdana;fontSize=8;align=center;spacing=6;" parent="1" vertex="1">
          <mxGeometry x="959" y="1274" width="120" height="40" as="geometry" />
        </mxCell>
        <mxCell id="bXdIr6pcIIm7j5BVq9ug-9" style="edgeStyle=orthogonalEdgeStyle;rounded=1;orthogonalLoop=1;jettySize=auto;html=1;" parent="1" source="bXdIr6pcIIm7j5BVq9ug-8" target="KzRNm1VHRkXIbj-EOXEV-62" edge="1">
          <mxGeometry relative="1" as="geometry" />
        </mxCell>
        <mxCell id="bXdIr6pcIIm7j5BVq9ug-8" value="USU 7" style="whiteSpace=wrap;html=1;rounded=1;shadow=1;labelBackgroundColor=none;strokeWidth=1;fontFamily=Verdana;fontSize=8;align=center;spacing=6;" parent="1" vertex="1">
          <mxGeometry x="1106.5" y="2359" width="120" height="40" as="geometry" />
        </mxCell>
        <mxCell id="bXdIr6pcIIm7j5BVq9ug-17" style="edgeStyle=orthogonalEdgeStyle;rounded=1;orthogonalLoop=1;jettySize=auto;html=1;" parent="1" source="bXdIr6pcIIm7j5BVq9ug-12" target="bXdIr6pcIIm7j5BVq9ug-14" edge="1">
          <mxGeometry relative="1" as="geometry" />
        </mxCell>
        <mxCell id="bXdIr6pcIIm7j5BVq9ug-18" style="edgeStyle=orthogonalEdgeStyle;rounded=1;orthogonalLoop=1;jettySize=auto;html=1;" parent="1" source="bXdIr6pcIIm7j5BVq9ug-12" target="bXdIr6pcIIm7j5BVq9ug-16" edge="1">
          <mxGeometry relative="1" as="geometry" />
        </mxCell>
        <mxCell id="bXdIr6pcIIm7j5BVq9ug-19" style="edgeStyle=orthogonalEdgeStyle;rounded=1;orthogonalLoop=1;jettySize=auto;html=1;" parent="1" source="bXdIr6pcIIm7j5BVq9ug-12" target="bXdIr6pcIIm7j5BVq9ug-15" edge="1">
          <mxGeometry relative="1" as="geometry" />
        </mxCell>
        <mxCell id="bXdIr6pcIIm7j5BVq9ug-12" value="B CAZA 0" style="rhombus;whiteSpace=wrap;html=1;rounded=1;shadow=1;labelBackgroundColor=none;strokeWidth=1;fontFamily=Verdana;fontSize=8;align=center;gradientDirection=north;fillColor=#4F3F00;" parent="1" vertex="1">
          <mxGeometry x="-399" y="2238" width="100" height="60" as="geometry" />
        </mxCell>
        <mxCell id="bXdIr6pcIIm7j5BVq9ug-24" style="edgeStyle=orthogonalEdgeStyle;rounded=1;orthogonalLoop=1;jettySize=auto;html=1;entryX=0.5;entryY=0;entryDx=0;entryDy=0;" parent="1" source="bXdIr6pcIIm7j5BVq9ug-14" target="bXdIr6pcIIm7j5BVq9ug-20" edge="1">
          <mxGeometry relative="1" as="geometry" />
        </mxCell>
        <mxCell id="bXdIr6pcIIm7j5BVq9ug-14" value="Acércate despacio" style="whiteSpace=wrap;html=1;rounded=1;shadow=1;labelBackgroundColor=none;strokeWidth=1;fontFamily=Verdana;fontSize=8;align=center;spacing=6;" parent="1" vertex="1">
          <mxGeometry x="-409" y="2356" width="120" height="40" as="geometry" />
        </mxCell>
        <mxCell id="bXdIr6pcIIm7j5BVq9ug-25" style="edgeStyle=orthogonalEdgeStyle;rounded=1;orthogonalLoop=1;jettySize=auto;html=1;" parent="1" source="bXdIr6pcIIm7j5BVq9ug-15" target="bXdIr6pcIIm7j5BVq9ug-21" edge="1">
          <mxGeometry relative="1" as="geometry" />
        </mxCell>
        <mxCell id="bXdIr6pcIIm7j5BVq9ug-15" value="Huye" style="whiteSpace=wrap;html=1;rounded=1;shadow=1;labelBackgroundColor=none;strokeWidth=1;fontFamily=Verdana;fontSize=8;align=center;spacing=6;" parent="1" vertex="1">
          <mxGeometry x="-224.5" y="2356" width="120" height="40" as="geometry" />
        </mxCell>
        <mxCell id="bXdIr6pcIIm7j5BVq9ug-23" style="edgeStyle=orthogonalEdgeStyle;rounded=1;orthogonalLoop=1;jettySize=auto;html=1;" parent="1" source="bXdIr6pcIIm7j5BVq9ug-16" target="bXdIr6pcIIm7j5BVq9ug-22" edge="1">
          <mxGeometry relative="1" as="geometry" />
        </mxCell>
        <mxCell id="bXdIr6pcIIm7j5BVq9ug-16" value="Enfréntate a él" style="whiteSpace=wrap;html=1;rounded=1;shadow=1;labelBackgroundColor=none;strokeWidth=1;fontFamily=Verdana;fontSize=8;align=center;spacing=6;" parent="1" vertex="1">
          <mxGeometry x="-595.5" y="2356" width="120" height="40" as="geometry" />
        </mxCell>
        <mxCell id="bXdIr6pcIIm7j5BVq9ug-31" style="edgeStyle=orthogonalEdgeStyle;rounded=1;orthogonalLoop=1;jettySize=auto;html=1;entryX=0.5;entryY=0;entryDx=0;entryDy=0;entryPerimeter=0;" parent="1" source="bXdIr6pcIIm7j5BVq9ug-20" target="bXdIr6pcIIm7j5BVq9ug-47" edge="1">
          <mxGeometry relative="1" as="geometry">
            <mxPoint x="-346.5" y="2679" as="targetPoint" />
          </mxGeometry>
        </mxCell>
        <mxCell id="bXdIr6pcIIm7j5BVq9ug-20" value="CAZA 2" style="whiteSpace=wrap;html=1;rounded=1;shadow=1;labelBackgroundColor=none;strokeWidth=1;fontFamily=Verdana;fontSize=8;align=center;spacing=6;" parent="1" vertex="1">
          <mxGeometry x="-409" y="2437" width="120" height="40" as="geometry" />
        </mxCell>
        <mxCell id="bXdIr6pcIIm7j5BVq9ug-29" style="edgeStyle=orthogonalEdgeStyle;rounded=1;orthogonalLoop=1;jettySize=auto;html=1;entryX=0.5;entryY=0;entryDx=0;entryDy=0;entryPerimeter=0;" parent="1" source="bXdIr6pcIIm7j5BVq9ug-21" target="YqCmkP_Uo_CHsXovVqEe-1" edge="1">
          <mxGeometry relative="1" as="geometry">
            <mxPoint x="-164.5" y="2535" as="targetPoint" />
          </mxGeometry>
        </mxCell>
        <mxCell id="bXdIr6pcIIm7j5BVq9ug-21" value="CAZA 3" style="whiteSpace=wrap;html=1;rounded=1;shadow=1;labelBackgroundColor=none;strokeWidth=1;fontFamily=Verdana;fontSize=8;align=center;spacing=6;" parent="1" vertex="1">
          <mxGeometry x="-224.5" y="2439" width="120" height="40" as="geometry" />
        </mxCell>
        <mxCell id="bXdIr6pcIIm7j5BVq9ug-28" style="edgeStyle=orthogonalEdgeStyle;rounded=1;orthogonalLoop=1;jettySize=auto;html=1;" parent="1" source="bXdIr6pcIIm7j5BVq9ug-22" target="bXdIr6pcIIm7j5BVq9ug-27" edge="1">
          <mxGeometry relative="1" as="geometry" />
        </mxCell>
        <mxCell id="bXdIr6pcIIm7j5BVq9ug-22" value="CAZA 1" style="whiteSpace=wrap;html=1;rounded=1;shadow=1;labelBackgroundColor=none;strokeWidth=1;fontFamily=Verdana;fontSize=8;align=center;spacing=6;" parent="1" vertex="1">
          <mxGeometry x="-595.5" y="2439" width="120" height="40" as="geometry" />
        </mxCell>
        <mxCell id="bXdIr6pcIIm7j5BVq9ug-27" value="Muerte" style="strokeWidth=1;html=1;shape=mxgraph.flowchart.terminator;whiteSpace=wrap;rounded=1;shadow=1;labelBackgroundColor=none;fontFamily=Verdana;fontSize=8;align=center;fillColor=#2A0303;" parent="1" vertex="1">
          <mxGeometry x="-565.5" y="2532" width="60" height="30" as="geometry" />
        </mxCell>
        <mxCell id="bXdIr6pcIIm7j5BVq9ug-35" style="edgeStyle=orthogonalEdgeStyle;rounded=1;orthogonalLoop=1;jettySize=auto;html=1;entryX=0.5;entryY=0;entryDx=0;entryDy=0;exitX=0.5;exitY=1;exitDx=0;exitDy=0;" parent="1" source="bXdIr6pcIIm7j5BVq9ug-32" target="YqCmkP_Uo_CHsXovVqEe-4" edge="1">
          <mxGeometry relative="1" as="geometry" />
        </mxCell>
        <mxCell id="bXdIr6pcIIm7j5BVq9ug-32" value="SOT 0" style="whiteSpace=wrap;html=1;rounded=1;shadow=1;labelBackgroundColor=none;strokeWidth=1;fontFamily=Verdana;fontSize=8;align=center;spacing=6;" parent="1" vertex="1">
          <mxGeometry x="2174" y="2453" width="120" height="40" as="geometry" />
        </mxCell>
        <mxCell id="bXdIr6pcIIm7j5BVq9ug-87" style="edgeStyle=orthogonalEdgeStyle;rounded=1;orthogonalLoop=1;jettySize=auto;html=1;" parent="1" source="bXdIr6pcIIm7j5BVq9ug-34" target="bXdIr6pcIIm7j5BVq9ug-71" edge="1">
          <mxGeometry relative="1" as="geometry" />
        </mxCell>
        <mxCell id="bXdIr6pcIIm7j5BVq9ug-90" style="edgeStyle=orthogonalEdgeStyle;rounded=1;orthogonalLoop=1;jettySize=auto;html=1;" parent="1" source="bXdIr6pcIIm7j5BVq9ug-34" target="bXdIr6pcIIm7j5BVq9ug-73" edge="1">
          <mxGeometry relative="1" as="geometry" />
        </mxCell>
        <mxCell id="bXdIr6pcIIm7j5BVq9ug-34" value="B SOT 0" style="rhombus;whiteSpace=wrap;html=1;rounded=1;shadow=1;labelBackgroundColor=none;strokeWidth=1;fontFamily=Verdana;fontSize=8;align=center;gradientDirection=north;fillColor=#4F3F00;" parent="1" vertex="1">
          <mxGeometry x="2184" y="3191" width="100" height="60" as="geometry" />
        </mxCell>
        <mxCell id="bXdIr6pcIIm7j5BVq9ug-40" style="edgeStyle=orthogonalEdgeStyle;rounded=1;orthogonalLoop=1;jettySize=auto;html=1;entryX=0.5;entryY=0;entryDx=0;entryDy=0;entryPerimeter=0;" parent="1" source="bXdIr6pcIIm7j5BVq9ug-38" target="bXdIr6pcIIm7j5BVq9ug-53" edge="1">
          <mxGeometry relative="1" as="geometry">
            <mxPoint x="324" y="2681" as="targetPoint" />
          </mxGeometry>
        </mxCell>
        <mxCell id="bXdIr6pcIIm7j5BVq9ug-38" value="OPE 9" style="whiteSpace=wrap;html=1;rounded=1;shadow=1;labelBackgroundColor=none;strokeWidth=1;fontFamily=Verdana;fontSize=8;align=center;spacing=6;" parent="1" vertex="1">
          <mxGeometry x="264" y="2637" width="120" height="40" as="geometry" />
        </mxCell>
        <mxCell id="bXdIr6pcIIm7j5BVq9ug-47" value="Captura" style="strokeWidth=1;html=1;shape=mxgraph.flowchart.terminator;whiteSpace=wrap;rounded=1;shadow=1;labelBackgroundColor=none;fontFamily=Verdana;fontSize=8;align=center;fillColor=#008a00;fontColor=#ffffff;strokeColor=#F0F0F0;" parent="1" vertex="1">
          <mxGeometry x="-379" y="2532" width="60" height="30" as="geometry" />
        </mxCell>
        <mxCell id="bXdIr6pcIIm7j5BVq9ug-50" value="Captura" style="strokeWidth=1;html=1;shape=mxgraph.flowchart.terminator;whiteSpace=wrap;rounded=1;shadow=1;labelBackgroundColor=none;fontFamily=Verdana;fontSize=8;align=center;fillColor=#008a00;fontColor=#ffffff;strokeColor=#F0F0F0;" parent="1" vertex="1">
          <mxGeometry x="100" y="2738" width="60" height="30" as="geometry" />
        </mxCell>
        <mxCell id="bXdIr6pcIIm7j5BVq9ug-53" value="Captura" style="strokeWidth=1;html=1;shape=mxgraph.flowchart.terminator;whiteSpace=wrap;rounded=1;shadow=1;labelBackgroundColor=none;fontFamily=Verdana;fontSize=8;align=center;fillColor=#008a00;fontColor=#ffffff;strokeColor=#F0F0F0;" parent="1" vertex="1">
          <mxGeometry x="294" y="2738" width="60" height="30" as="geometry" />
        </mxCell>
        <mxCell id="bXdIr6pcIIm7j5BVq9ug-55" value="Captura" style="strokeWidth=1;html=1;shape=mxgraph.flowchart.terminator;whiteSpace=wrap;rounded=1;shadow=1;labelBackgroundColor=none;fontFamily=Verdana;fontSize=8;align=center;fillColor=#008a00;fontColor=#ffffff;strokeColor=#F0F0F0;" parent="1" vertex="1">
          <mxGeometry x="1975" y="2107" width="60" height="30" as="geometry" />
        </mxCell>
        <mxCell id="bXdIr6pcIIm7j5BVq9ug-58" value="Captura" style="strokeWidth=1;html=1;shape=mxgraph.flowchart.terminator;whiteSpace=wrap;rounded=1;shadow=1;labelBackgroundColor=none;fontFamily=Verdana;fontSize=8;align=center;fillColor=#008a00;fontColor=#ffffff;strokeColor=#F0F0F0;" parent="1" vertex="1">
          <mxGeometry x="1415" y="2932" width="60" height="30" as="geometry" />
        </mxCell>
        <mxCell id="bXdIr6pcIIm7j5BVq9ug-62" value="Captura" style="strokeWidth=1;html=1;shape=mxgraph.flowchart.terminator;whiteSpace=wrap;rounded=1;shadow=1;labelBackgroundColor=none;fontFamily=Verdana;fontSize=8;align=center;fillColor=#008a00;fontColor=#ffffff;strokeColor=#F0F0F0;" parent="1" vertex="1">
          <mxGeometry x="794" y="3831" width="60" height="30" as="geometry" />
        </mxCell>
        <mxCell id="bXdIr6pcIIm7j5BVq9ug-64" value="Captura" style="strokeWidth=1;html=1;shape=mxgraph.flowchart.terminator;whiteSpace=wrap;rounded=1;shadow=1;labelBackgroundColor=none;fontFamily=Verdana;fontSize=8;align=center;fillColor=#008a00;fontColor=#ffffff;strokeColor=#F0F0F0;" parent="1" vertex="1">
          <mxGeometry x="1421" y="3618" width="60" height="30" as="geometry" />
        </mxCell>
        <mxCell id="bXdIr6pcIIm7j5BVq9ug-70" style="edgeStyle=orthogonalEdgeStyle;rounded=1;orthogonalLoop=1;jettySize=auto;html=1;entryX=0.5;entryY=0;entryDx=0;entryDy=0;" parent="1" source="bXdIr6pcIIm7j5BVq9ug-71" target="bXdIr6pcIIm7j5BVq9ug-77" edge="1">
          <mxGeometry relative="1" as="geometry" />
        </mxCell>
        <mxCell id="bXdIr6pcIIm7j5BVq9ug-71" value="Camina a saltos" style="whiteSpace=wrap;html=1;rounded=1;shadow=1;labelBackgroundColor=none;strokeWidth=1;fontFamily=Verdana;fontSize=8;align=center;spacing=6;" parent="1" vertex="1">
          <mxGeometry x="2174" y="3309" width="120" height="40" as="geometry" />
        </mxCell>
        <mxCell id="bXdIr6pcIIm7j5BVq9ug-72" style="edgeStyle=orthogonalEdgeStyle;rounded=1;orthogonalLoop=1;jettySize=auto;html=1;" parent="1" source="bXdIr6pcIIm7j5BVq9ug-73" target="bXdIr6pcIIm7j5BVq9ug-79" edge="1">
          <mxGeometry relative="1" as="geometry" />
        </mxCell>
        <mxCell id="bXdIr6pcIIm7j5BVq9ug-73" value="Ve lento y pisa firme" style="whiteSpace=wrap;html=1;rounded=1;shadow=1;labelBackgroundColor=none;strokeWidth=1;fontFamily=Verdana;fontSize=8;align=center;spacing=6;" parent="1" vertex="1">
          <mxGeometry x="2359.5" y="3309" width="120" height="40" as="geometry" />
        </mxCell>
        <mxCell id="bXdIr6pcIIm7j5BVq9ug-76" style="edgeStyle=orthogonalEdgeStyle;rounded=1;orthogonalLoop=1;jettySize=auto;html=1;entryX=0.5;entryY=0;entryDx=0;entryDy=0;entryPerimeter=0;" parent="1" source="bXdIr6pcIIm7j5BVq9ug-77" target="bXdIr6pcIIm7j5BVq9ug-88" edge="1">
          <mxGeometry relative="1" as="geometry">
            <mxPoint x="2234" y="3546" as="targetPoint" />
          </mxGeometry>
        </mxCell>
        <mxCell id="bXdIr6pcIIm7j5BVq9ug-77" value="SOT 3" style="whiteSpace=wrap;html=1;rounded=1;shadow=1;labelBackgroundColor=none;strokeWidth=1;fontFamily=Verdana;fontSize=8;align=center;spacing=6;" parent="1" vertex="1">
          <mxGeometry x="2174" y="3401" width="120" height="40" as="geometry" />
        </mxCell>
        <mxCell id="bXdIr6pcIIm7j5BVq9ug-78" style="edgeStyle=orthogonalEdgeStyle;rounded=1;orthogonalLoop=1;jettySize=auto;html=1;" parent="1" source="bXdIr6pcIIm7j5BVq9ug-79" target="bXdIr6pcIIm7j5BVq9ug-82" edge="1">
          <mxGeometry relative="1" as="geometry" />
        </mxCell>
        <mxCell id="bXdIr6pcIIm7j5BVq9ug-79" value="SOT 4" style="whiteSpace=wrap;html=1;rounded=1;shadow=1;labelBackgroundColor=none;strokeWidth=1;fontFamily=Verdana;fontSize=8;align=center;spacing=6;" parent="1" vertex="1">
          <mxGeometry x="2359.5" y="3403" width="120" height="40" as="geometry" />
        </mxCell>
        <mxCell id="bXdIr6pcIIm7j5BVq9ug-82" value="Muerte" style="strokeWidth=1;html=1;shape=mxgraph.flowchart.terminator;whiteSpace=wrap;rounded=1;shadow=1;labelBackgroundColor=none;fontFamily=Verdana;fontSize=8;align=center;fillColor=#2A0303;" parent="1" vertex="1">
          <mxGeometry x="2389.5" y="3496" width="60" height="30" as="geometry" />
        </mxCell>
        <mxCell id="bXdIr6pcIIm7j5BVq9ug-88" value="Muerte" style="strokeWidth=1;html=1;shape=mxgraph.flowchart.terminator;whiteSpace=wrap;rounded=1;shadow=1;labelBackgroundColor=none;fontFamily=Verdana;fontSize=8;align=center;fillColor=#2A0303;" parent="1" vertex="1">
          <mxGeometry x="2204" y="3496" width="60" height="30" as="geometry" />
        </mxCell>
        <mxCell id="bXdIr6pcIIm7j5BVq9ug-94" style="edgeStyle=orthogonalEdgeStyle;rounded=1;orthogonalLoop=1;jettySize=auto;html=1;" parent="1" source="bXdIr6pcIIm7j5BVq9ug-91" target="68BcuDwH08eM5kMHiCQf-3" edge="1">
          <mxGeometry relative="1" as="geometry" />
        </mxCell>
        <mxCell id="bXdIr6pcIIm7j5BVq9ug-91" value="Recoge la varilla" style="whiteSpace=wrap;html=1;rounded=1;shadow=1;labelBackgroundColor=none;strokeWidth=1;fontFamily=Verdana;fontSize=8;align=center;spacing=6;" parent="1" vertex="1">
          <mxGeometry x="940" y="1932" width="120" height="40" as="geometry" />
        </mxCell>
        <mxCell id="bXdIr6pcIIm7j5BVq9ug-93" value="Muerte" style="strokeWidth=1;html=1;shape=mxgraph.flowchart.terminator;whiteSpace=wrap;rounded=1;shadow=1;labelBackgroundColor=none;fontFamily=Verdana;fontSize=8;align=center;fillColor=#2A0303;" parent="1" vertex="1">
          <mxGeometry x="970" y="2137" width="60" height="30" as="geometry" />
        </mxCell>
        <mxCell id="smO6bI4jZ_qUpubtPsuz-7" style="edgeStyle=orthogonalEdgeStyle;rounded=1;orthogonalLoop=1;jettySize=auto;html=1;" parent="1" source="smO6bI4jZ_qUpubtPsuz-3" target="bXdIr6pcIIm7j5BVq9ug-32" edge="1">
          <mxGeometry relative="1" as="geometry" />
        </mxCell>
        <mxCell id="smO6bI4jZ_qUpubtPsuz-3" value="Fuerza la puerta" style="whiteSpace=wrap;html=1;rounded=1;shadow=1;labelBackgroundColor=none;strokeWidth=1;fontFamily=Verdana;fontSize=8;align=center;spacing=6;" parent="1" vertex="1">
          <mxGeometry x="1750" y="2356" width="120" height="40" as="geometry" />
        </mxCell>
        <mxCell id="smO6bI4jZ_qUpubtPsuz-8" style="edgeStyle=orthogonalEdgeStyle;rounded=1;orthogonalLoop=1;jettySize=auto;html=1;entryX=0;entryY=0.5;entryDx=0;entryDy=0;" parent="1" source="smO6bI4jZ_qUpubtPsuz-5" target="YqCmkP_Uo_CHsXovVqEe-2" edge="1">
          <mxGeometry relative="1" as="geometry" />
        </mxCell>
        <mxCell id="smO6bI4jZ_qUpubtPsuz-5" value="Abre la puerta" style="whiteSpace=wrap;html=1;rounded=1;shadow=1;labelBackgroundColor=none;strokeWidth=1;fontFamily=Verdana;fontSize=8;align=center;spacing=6;" parent="1" vertex="1">
          <mxGeometry x="1750" y="2722" width="120" height="40" as="geometry" />
        </mxCell>
        <mxCell id="smO6bI4jZ_qUpubtPsuz-12" value="AUTOR 0" style="whiteSpace=wrap;html=1;rounded=1;shadow=1;labelBackgroundColor=none;strokeWidth=1;fontFamily=Verdana;fontSize=8;align=center;spacing=6;" parent="1" vertex="1">
          <mxGeometry x="1750" y="3627" width="120" height="40" as="geometry" />
        </mxCell>
        <mxCell id="z3bMcTmMKauird0PgGkB-4" style="edgeStyle=orthogonalEdgeStyle;rounded=1;orthogonalLoop=1;jettySize=auto;html=1;" parent="1" source="z3bMcTmMKauird0PgGkB-1" target="z3bMcTmMKauird0PgGkB-3" edge="1">
          <mxGeometry relative="1" as="geometry" />
        </mxCell>
        <mxCell id="z3bMcTmMKauird0PgGkB-1" value="Síguelo" style="whiteSpace=wrap;html=1;rounded=1;shadow=1;labelBackgroundColor=none;strokeWidth=1;fontFamily=Verdana;fontSize=8;align=center;spacing=6;" parent="1" vertex="1">
          <mxGeometry x="1750" y="1930" width="120" height="40" as="geometry" />
        </mxCell>
        <mxCell id="z3bMcTmMKauird0PgGkB-5" style="edgeStyle=orthogonalEdgeStyle;rounded=1;orthogonalLoop=1;jettySize=auto;html=1;entryX=1;entryY=0.5;entryDx=0;entryDy=0;exitX=0.5;exitY=1;exitDx=0;exitDy=0;" parent="1" source="z3bMcTmMKauird0PgGkB-3" target="_Uk2ADQKiKTDVJzTZTwr-3" edge="1">
          <mxGeometry relative="1" as="geometry" />
        </mxCell>
        <mxCell id="z3bMcTmMKauird0PgGkB-3" value="MON 3" style="whiteSpace=wrap;html=1;rounded=1;shadow=1;labelBackgroundColor=none;strokeWidth=1;fontFamily=Verdana;fontSize=8;align=center;spacing=6;" parent="1" vertex="1">
          <mxGeometry x="1750" y="2031" width="120" height="40" as="geometry" />
        </mxCell>
        <mxCell id="erNQYKor5SNn1zJZx747-66" style="edgeStyle=orthogonalEdgeStyle;rounded=1;orthogonalLoop=1;jettySize=auto;html=1;" parent="1" source="erNQYKor5SNn1zJZx747-65" target="uqprIy-3fPHbmCHrBsN2-5" edge="1">
          <mxGeometry relative="1" as="geometry" />
        </mxCell>
        <mxCell id="erNQYKor5SNn1zJZx747-65" value="INTRO 4" style="whiteSpace=wrap;html=1;rounded=1;shadow=1;labelBackgroundColor=none;strokeWidth=1;fontFamily=Verdana;fontSize=8;align=center;spacing=6;" parent="1" vertex="1">
          <mxGeometry x="665" y="538" width="120" height="40" as="geometry" />
        </mxCell>
        <mxCell id="68BcuDwH08eM5kMHiCQf-4" style="edgeStyle=orthogonalEdgeStyle;rounded=0;orthogonalLoop=1;jettySize=auto;html=1;" parent="1" source="68BcuDwH08eM5kMHiCQf-3" target="bXdIr6pcIIm7j5BVq9ug-93" edge="1">
          <mxGeometry relative="1" as="geometry" />
        </mxCell>
        <mxCell id="68BcuDwH08eM5kMHiCQf-3" value="USU 6" style="whiteSpace=wrap;html=1;rounded=1;shadow=1;labelBackgroundColor=none;strokeWidth=1;fontFamily=Verdana;fontSize=8;align=center;spacing=6;" parent="1" vertex="1">
          <mxGeometry x="940" y="2033" width="120" height="40" as="geometry" />
        </mxCell>
        <mxCell id="oMqR89CrZ4jayvg0T-Ow-2" value="OPE 2" style="whiteSpace=wrap;html=1;rounded=1;shadow=1;labelBackgroundColor=none;strokeWidth=1;fontFamily=Verdana;fontSize=8;align=center;fillColor=#2A2A2A;" parent="1" vertex="1">
          <mxGeometry x="354" y="953" width="120" height="40" as="geometry" />
        </mxCell>
        <mxCell id="oMqR89CrZ4jayvg0T-Ow-3" style="edgeStyle=orthogonalEdgeStyle;rounded=1;orthogonalLoop=1;jettySize=auto;html=1;entryX=0.5;entryY=0;entryDx=0;entryDy=0;exitX=0.5;exitY=1;exitDx=0;exitDy=0;" parent="1" source="oMqR89CrZ4jayvg0T-Ow-2" target="uqprIy-3fPHbmCHrBsN2-43" edge="1">
          <mxGeometry relative="1" as="geometry">
            <mxPoint x="424" y="997" as="targetPoint" />
            <mxPoint x="424" y="889" as="sourcePoint" />
          </mxGeometry>
        </mxCell>
        <mxCell id="oMqR89CrZ4jayvg0T-Ow-4" value="OPE 3" style="whiteSpace=wrap;html=1;rounded=1;shadow=1;labelBackgroundColor=none;strokeWidth=1;fontFamily=Verdana;fontSize=8;align=center;spacing=6;" parent="1" vertex="1">
          <mxGeometry x="70" y="1274" width="120" height="40" as="geometry" />
        </mxCell>
        <mxCell id="oMqR89CrZ4jayvg0T-Ow-5" style="edgeStyle=orthogonalEdgeStyle;rounded=1;orthogonalLoop=1;jettySize=auto;html=1;exitX=0.5;exitY=1;exitDx=0;exitDy=0;entryX=0.5;entryY=0;entryDx=0;entryDy=0;" parent="1" source="KzRNm1VHRkXIbj-EOXEV-12" target="oMqR89CrZ4jayvg0T-Ow-4" edge="1">
          <mxGeometry relative="1" as="geometry">
            <mxPoint x="139.99999999999977" y="1229" as="sourcePoint" />
            <mxPoint x="42" y="1277" as="targetPoint" />
          </mxGeometry>
        </mxCell>
        <mxCell id="oMqR89CrZ4jayvg0T-Ow-6" style="edgeStyle=orthogonalEdgeStyle;rounded=1;orthogonalLoop=1;jettySize=auto;html=1;entryX=0.5;entryY=0;entryDx=0;entryDy=0;exitX=0.5;exitY=1;exitDx=0;exitDy=0;" parent="1" source="oMqR89CrZ4jayvg0T-Ow-4" target="KzRNm1VHRkXIbj-EOXEV-16" edge="1">
          <mxGeometry relative="1" as="geometry">
            <mxPoint x="42" y="1317" as="sourcePoint" />
            <mxPoint x="139.99999999999977" y="1397" as="targetPoint" />
          </mxGeometry>
        </mxCell>
        <mxCell id="V76eQI3fGGlbh4bUr6bM-1" value="INTRO 6" style="whiteSpace=wrap;html=1;rounded=1;shadow=1;labelBackgroundColor=none;strokeWidth=1;fontFamily=Verdana;fontSize=8;align=center;" parent="1" vertex="1">
          <mxGeometry x="959" y="1179" width="120" height="40" as="geometry" />
        </mxCell>
        <mxCell id="V76eQI3fGGlbh4bUr6bM-2" style="edgeStyle=orthogonalEdgeStyle;rounded=1;orthogonalLoop=1;jettySize=auto;html=1;entryX=0.5;entryY=0;entryDx=0;entryDy=0;exitX=0.5;exitY=1;exitDx=0;exitDy=0;" parent="1" source="V76eQI3fGGlbh4bUr6bM-1" target="bXdIr6pcIIm7j5BVq9ug-4" edge="1">
          <mxGeometry relative="1" as="geometry">
            <mxPoint x="1029" y="816" as="sourcePoint" />
            <mxPoint x="1029" y="1181" as="targetPoint" />
          </mxGeometry>
        </mxCell>
        <mxCell id="N5EEbq5jMqHb_xn9fPmv-3" style="edgeStyle=orthogonalEdgeStyle;rounded=0;orthogonalLoop=1;jettySize=auto;html=1;entryX=0.5;entryY=0;entryDx=0;entryDy=0;" parent="1" source="N5EEbq5jMqHb_xn9fPmv-1" target="N5EEbq5jMqHb_xn9fPmv-2" edge="1">
          <mxGeometry relative="1" as="geometry" />
        </mxCell>
        <mxCell id="N5EEbq5jMqHb_xn9fPmv-1" value="USU 16.1" style="whiteSpace=wrap;html=1;rounded=1;shadow=1;labelBackgroundColor=none;strokeWidth=1;fontFamily=Verdana;fontSize=8;align=center;spacing=6;" parent="1" vertex="1">
          <mxGeometry x="764" y="3526" width="120" height="40" as="geometry" />
        </mxCell>
        <mxCell id="N5EEbq5jMqHb_xn9fPmv-4" style="edgeStyle=orthogonalEdgeStyle;rounded=0;orthogonalLoop=1;jettySize=auto;html=1;entryX=0.5;entryY=0;entryDx=0;entryDy=0;" parent="1" source="N5EEbq5jMqHb_xn9fPmv-2" target="N5EEbq5jMqHb_xn9fPmv-5" edge="1">
          <mxGeometry relative="1" as="geometry" />
        </mxCell>
        <mxCell id="N5EEbq5jMqHb_xn9fPmv-2" value="USU 16.2" style="whiteSpace=wrap;html=1;rounded=1;shadow=1;labelBackgroundColor=none;strokeWidth=1;fontFamily=Verdana;fontSize=8;align=center;spacing=6;" parent="1" vertex="1">
          <mxGeometry x="764" y="3627" width="120" height="40" as="geometry" />
        </mxCell>
        <mxCell id="N5EEbq5jMqHb_xn9fPmv-7" style="edgeStyle=orthogonalEdgeStyle;rounded=0;orthogonalLoop=1;jettySize=auto;html=1;entryX=0.5;entryY=0;entryDx=0;entryDy=0;entryPerimeter=0;" parent="1" source="N5EEbq5jMqHb_xn9fPmv-5" target="bXdIr6pcIIm7j5BVq9ug-62" edge="1">
          <mxGeometry relative="1" as="geometry">
            <mxPoint x="825" y="3816" as="targetPoint" />
          </mxGeometry>
        </mxCell>
        <mxCell id="N5EEbq5jMqHb_xn9fPmv-5" value="USU 17" style="whiteSpace=wrap;html=1;rounded=1;shadow=1;labelBackgroundColor=none;strokeWidth=1;fontFamily=Verdana;fontSize=8;align=center;spacing=6;" parent="1" vertex="1">
          <mxGeometry x="764" y="3731" width="120" height="40" as="geometry" />
        </mxCell>
        <mxCell id="N5EEbq5jMqHb_xn9fPmv-8" value="Captura" style="strokeWidth=1;html=1;shape=mxgraph.flowchart.terminator;whiteSpace=wrap;rounded=1;shadow=1;labelBackgroundColor=none;fontFamily=Verdana;fontSize=8;align=center;fillColor=#008a00;fontColor=#ffffff;strokeColor=#F0F0F0;" parent="1" vertex="1">
          <mxGeometry x="989" y="1720" width="60" height="30" as="geometry" />
        </mxCell>
        <mxCell id="CkFsvojRCZqZdOt64H9Z-1" value="Muerte" style="strokeWidth=1;html=1;shape=mxgraph.flowchart.terminator;whiteSpace=wrap;rounded=1;shadow=1;labelBackgroundColor=none;fontFamily=Verdana;fontSize=8;align=center;fillColor=#2A0303;" parent="1" vertex="1">
          <mxGeometry x="970" y="3831" width="60" height="30" as="geometry" />
        </mxCell>
        <mxCell id="CkFsvojRCZqZdOt64H9Z-2" value="USU 19.2" style="whiteSpace=wrap;html=1;rounded=1;shadow=1;labelBackgroundColor=none;strokeWidth=1;fontFamily=Verdana;fontSize=8;align=center;spacing=6;" parent="1" vertex="1">
          <mxGeometry x="1092" y="3627" width="120" height="40" as="geometry" />
        </mxCell>
        <mxCell id="CkFsvojRCZqZdOt64H9Z-6" style="edgeStyle=orthogonalEdgeStyle;rounded=0;orthogonalLoop=1;jettySize=auto;html=1;entryX=0.5;entryY=0;entryDx=0;entryDy=0;entryPerimeter=0;" parent="1" source="CkFsvojRCZqZdOt64H9Z-5" target="CkFsvojRCZqZdOt64H9Z-1" edge="1">
          <mxGeometry relative="1" as="geometry">
            <mxPoint x="1000" y="3816" as="targetPoint" />
          </mxGeometry>
        </mxCell>
        <mxCell id="CkFsvojRCZqZdOt64H9Z-5" value="USU 20" style="whiteSpace=wrap;html=1;rounded=1;shadow=1;labelBackgroundColor=none;strokeWidth=1;fontFamily=Verdana;fontSize=8;align=center;spacing=6;" parent="1" vertex="1">
          <mxGeometry x="940" y="3731" width="120" height="40" as="geometry" />
        </mxCell>
        <mxCell id="_Uk2ADQKiKTDVJzTZTwr-2" style="edgeStyle=orthogonalEdgeStyle;rounded=0;orthogonalLoop=1;jettySize=auto;html=1;entryX=1;entryY=0.5;entryDx=0;entryDy=0;" parent="1" source="_Uk2ADQKiKTDVJzTZTwr-1" target="KzRNm1VHRkXIbj-EOXEV-62" edge="1">
          <mxGeometry relative="1" as="geometry" />
        </mxCell>
        <mxCell id="_Uk2ADQKiKTDVJzTZTwr-1" value="USU 8" style="whiteSpace=wrap;html=1;rounded=1;shadow=1;labelBackgroundColor=none;strokeWidth=1;fontFamily=Verdana;fontSize=8;align=center;spacing=6;" parent="1" vertex="1">
          <mxGeometry x="1106.5" y="2488" width="120" height="40" as="geometry" />
        </mxCell>
        <mxCell id="_Uk2ADQKiKTDVJzTZTwr-4" style="edgeStyle=orthogonalEdgeStyle;rounded=0;orthogonalLoop=1;jettySize=auto;html=1;entryX=0.5;entryY=0;entryDx=0;entryDy=0;" parent="1" source="_Uk2ADQKiKTDVJzTZTwr-3" target="KzRNm1VHRkXIbj-EOXEV-82" edge="1">
          <mxGeometry relative="1" as="geometry" />
        </mxCell>
        <mxCell id="_Uk2ADQKiKTDVJzTZTwr-3" value="MON 5" style="whiteSpace=wrap;html=1;rounded=1;shadow=1;labelBackgroundColor=none;strokeWidth=1;fontFamily=Verdana;fontSize=8;align=center;spacing=6;" parent="1" vertex="1">
          <mxGeometry x="1564.5" y="2122" width="120" height="40" as="geometry" />
        </mxCell>
        <mxCell id="YqCmkP_Uo_CHsXovVqEe-1" value="Captura" style="strokeWidth=1;html=1;shape=mxgraph.flowchart.terminator;whiteSpace=wrap;rounded=1;shadow=1;labelBackgroundColor=none;fontFamily=Verdana;fontSize=8;align=center;fillColor=#008a00;fontColor=#ffffff;strokeColor=#F0F0F0;" parent="1" vertex="1">
          <mxGeometry x="-194.5" y="2532" width="60" height="30" as="geometry" />
        </mxCell>
        <mxCell id="YqCmkP_Uo_CHsXovVqEe-3" style="edgeStyle=orthogonalEdgeStyle;rounded=0;orthogonalLoop=1;jettySize=auto;html=1;exitX=0.5;exitY=1;exitDx=0;exitDy=0;" parent="1" source="YqCmkP_Uo_CHsXovVqEe-4" target="bXdIr6pcIIm7j5BVq9ug-34" edge="1">
          <mxGeometry relative="1" as="geometry" />
        </mxCell>
        <mxCell id="YqCmkP_Uo_CHsXovVqEe-2" value="SOT 1" style="whiteSpace=wrap;html=1;rounded=1;shadow=1;labelBackgroundColor=none;strokeWidth=1;fontFamily=Verdana;fontSize=8;align=center;spacing=6;" parent="1" vertex="1">
          <mxGeometry x="2030" y="2722" width="120" height="40" as="geometry" />
        </mxCell>
        <mxCell id="YqCmkP_Uo_CHsXovVqEe-4" value="SOT 2" style="whiteSpace=wrap;html=1;rounded=1;shadow=1;labelBackgroundColor=none;strokeWidth=1;fontFamily=Verdana;fontSize=8;align=center;spacing=6;" parent="1" vertex="1">
          <mxGeometry x="2174" y="2834" width="120" height="40" as="geometry" />
        </mxCell>
        <mxCell id="YqCmkP_Uo_CHsXovVqEe-6" style="edgeStyle=orthogonalEdgeStyle;rounded=1;orthogonalLoop=1;jettySize=auto;html=1;entryX=0.25;entryY=0;entryDx=0;entryDy=0;exitX=1;exitY=0.5;exitDx=0;exitDy=0;" parent="1" source="YqCmkP_Uo_CHsXovVqEe-2" target="YqCmkP_Uo_CHsXovVqEe-4" edge="1">
          <mxGeometry relative="1" as="geometry">
            <mxPoint x="2220" y="2757" as="sourcePoint" />
            <mxPoint x="2179" y="2838" as="targetPoint" />
          </mxGeometry>
        </mxCell>
        <mxCell id="YqCmkP_Uo_CHsXovVqEe-7" style="edgeStyle=orthogonalEdgeStyle;rounded=1;orthogonalLoop=1;jettySize=auto;html=1;exitX=1;exitY=0.5;exitDx=0;exitDy=0;entryX=0.5;entryY=0;entryDx=0;entryDy=0;" parent="1" source="KzRNm1VHRkXIbj-EOXEV-95" target="CkFsvojRCZqZdOt64H9Z-2" edge="1">
          <mxGeometry relative="1" as="geometry">
            <mxPoint x="884.4999999999995" y="3274" as="sourcePoint" />
            <mxPoint x="1009.5294117647059" y="3362" as="targetPoint" />
          </mxGeometry>
        </mxCell>
        <mxCell id="YqCmkP_Uo_CHsXovVqEe-8" style="edgeStyle=orthogonalEdgeStyle;rounded=1;orthogonalLoop=1;jettySize=auto;html=1;entryX=1;entryY=0.5;entryDx=0;entryDy=0;exitX=0.5;exitY=1;exitDx=0;exitDy=0;" parent="1" source="CkFsvojRCZqZdOt64H9Z-2" target="CkFsvojRCZqZdOt64H9Z-5" edge="1">
          <mxGeometry relative="1" as="geometry">
            <mxPoint x="894.4999999999995" y="3305" as="sourcePoint" />
            <mxPoint x="1019.5294117647059" y="3393" as="targetPoint" />
          </mxGeometry>
        </mxCell>
        <mxCell id="YqCmkP_Uo_CHsXovVqEe-10" value="Huida" style="strokeWidth=1;html=1;shape=mxgraph.flowchart.terminator;whiteSpace=wrap;rounded=1;shadow=1;labelBackgroundColor=none;fontFamily=Verdana;fontSize=8;align=center;fillColor=#e3c800;fontColor=#000000;strokeColor=#F0F0F0;" parent="1" vertex="1">
          <mxGeometry x="1780" y="3832" width="60" height="30" as="geometry" />
        </mxCell>
        <mxCell id="YqCmkP_Uo_CHsXovVqEe-11" value="Captura" style="strokeWidth=1;html=1;shape=mxgraph.flowchart.terminator;whiteSpace=wrap;rounded=1;shadow=1;labelBackgroundColor=none;fontFamily=Verdana;fontSize=8;align=center;fillColor=#008a00;fontColor=#ffffff;strokeColor=#F0F0F0;" parent="1" vertex="1">
          <mxGeometry x="1594.5" y="3618" width="60" height="30" as="geometry" />
        </mxCell>
        <mxCell id="YqCmkP_Uo_CHsXovVqEe-19" style="edgeStyle=orthogonalEdgeStyle;rounded=1;orthogonalLoop=1;jettySize=auto;html=1;entryX=0.5;entryY=0;entryDx=0;entryDy=0;exitX=0.5;exitY=1;exitDx=0;exitDy=0;" parent="1" source="smO6bI4jZ_qUpubtPsuz-12" target="YqCmkP_Uo_CHsXovVqEe-20" edge="1">
          <mxGeometry relative="1" as="geometry">
            <mxPoint x="1947" y="4019" as="sourcePoint" />
            <mxPoint x="1820" y="3888" as="targetPoint" />
          </mxGeometry>
        </mxCell>
        <mxCell id="YqCmkP_Uo_CHsXovVqEe-21" value="" style="edgeStyle=orthogonalEdgeStyle;rounded=0;orthogonalLoop=1;jettySize=auto;html=1;" parent="1" source="YqCmkP_Uo_CHsXovVqEe-20" target="YqCmkP_Uo_CHsXovVqEe-10" edge="1">
          <mxGeometry relative="1" as="geometry" />
        </mxCell>
        <mxCell id="YqCmkP_Uo_CHsXovVqEe-20" value="AUTOR 1" style="whiteSpace=wrap;html=1;rounded=1;shadow=1;labelBackgroundColor=none;strokeWidth=1;fontFamily=Verdana;fontSize=8;align=center;spacing=6;" parent="1" vertex="1">
          <mxGeometry x="1750" y="3731" width="120" height="40" as="geometry" />
        </mxCell>
        <mxCell id="YqCmkP_Uo_CHsXovVqEe-23" style="edgeStyle=orthogonalEdgeStyle;rounded=1;orthogonalLoop=1;jettySize=auto;html=1;exitX=0.5;exitY=1;exitDx=0;exitDy=0;entryX=0.5;entryY=0;entryDx=0;entryDy=0;" parent="1" source="RD_AgM2ZFSz2vdP_wPXj-12" target="bXdIr6pcIIm7j5BVq9ug-8" edge="1">
          <mxGeometry relative="1" as="geometry">
            <mxPoint x="1584.5" y="2269" as="sourcePoint" />
            <mxPoint x="1174" y="2318" as="targetPoint" />
            <Array as="points">
              <mxPoint x="1445" y="1972" />
              <mxPoint x="1445" y="2243" />
              <mxPoint x="1167" y="2243" />
            </Array>
          </mxGeometry>
        </mxCell>
        <mxCell id="YqCmkP_Uo_CHsXovVqEe-26" style="edgeStyle=orthogonalEdgeStyle;rounded=0;orthogonalLoop=1;jettySize=auto;html=1;" parent="1" source="YqCmkP_Uo_CHsXovVqEe-25" target="bXdIr6pcIIm7j5BVq9ug-38" edge="1">
          <mxGeometry relative="1" as="geometry" />
        </mxCell>
        <mxCell id="YqCmkP_Uo_CHsXovVqEe-25" value="Animación operador" style="whiteSpace=wrap;html=1;rounded=1;shadow=1;labelBackgroundColor=none;strokeWidth=1;fontFamily=Verdana;fontSize=8;align=center;spacing=6;fillColor=#6d8764;fontColor=#ffffff;strokeColor=#F0F0F0;" parent="1" vertex="1">
          <mxGeometry x="264" y="2541" width="120" height="40" as="geometry" />
        </mxCell>
        <mxCell id="tIU8I_EAOTodSFCsPTR--2" style="edgeStyle=orthogonalEdgeStyle;rounded=0;orthogonalLoop=1;jettySize=auto;html=1;entryX=0.5;entryY=1;entryDx=0;entryDy=0;" parent="1" source="tIU8I_EAOTodSFCsPTR--1" target="ldbtIe3ePr57GWi5LKob-6" edge="1">
          <mxGeometry relative="1" as="geometry" />
        </mxCell>
        <mxCell id="tIU8I_EAOTodSFCsPTR--1" value="USU 1" style="whiteSpace=wrap;html=1;rounded=1;shadow=1;labelBackgroundColor=none;strokeWidth=1;fontFamily=Verdana;fontSize=8;align=center;" parent="1" vertex="1">
          <mxGeometry x="354" y="1370" width="120" height="40" as="geometry" />
        </mxCell>
      </root>
    </mxGraphModel>
  </diagram>
</mxfile>
